<?xml version="1.0" encoding="utf-8"?>
<!-- Generator: Adobe Illustrator 12.0.0, SVG Export Plug-In . SVG Version: 6.00 Build 51448)  -->
<!DOCTYPE svg PUBLIC "-//W3C//DTD SVG 1.1//EN" "http://www.w3.org/Graphics/SVG/1.1/DTD/svg11.dtd" [
	<!ENTITY ns_svg "http://www.w3.org/2000/svg">
	<!ENTITY ns_xlink "http://www.w3.org/1999/xlink">
]>
<svg  version="1.1" id="Ebene_1" xmlns="&ns_svg;" xmlns:xlink="&ns_xlink;" width="411.191" height="563.993"
	 viewBox="0 0 411.191 563.993" overflow="visible" enable-background="new 0 0 411.191 563.993" xml:space="preserve">
<path fill="#B7B7B7" d="M88.637,510.234c45.791-0.127,66.844-2.387,66.844-2.387c6.02,0,11.467-2.236,15.41-5.855
	c3.945-3.619,6.385-8.619,6.385-14.145c0,0-1.676-98.113-1.549-126.137c0.129-28.023-5.752-126.14-5.752-126.14
	c0-5.523-2.238-10.523-5.855-14.142c-3.619-3.619-8.619-5.858-14.145-5.858c0,0-15.547-2.256-61.338-2.385
	c-45.791,0.128-61.338,2.385-61.338,2.385c-5.523,0-10.523,2.239-14.144,5.858c-3.618,3.619-5.856,8.618-5.856,14.142
	c0,0-5.88,98.114-5.752,126.14C1.675,389.734,0,487.847,0,487.847c0,5.523,2.438,10.523,6.384,14.145
	c3.944,3.619,9.393,5.855,15.411,5.855C21.794,507.847,42.846,510.107,88.637,510.234z"/>
<g>
	<path d="M22.007,505.859l-0.106-0.012h-0.105c-5.32,0-10.313-1.893-14.061-5.33C4.037,497.123,2,492.625,2,487.847
		c0.016-0.912,1.555-91.387,1.555-122.814c0-1.199-0.002-2.313-0.007-3.332c-0.001-0.295-0.002-0.602-0.002-0.914
		c0-28.803,5.69-124.124,5.75-125.096l0.003-0.06v-0.061c0-4.809,1.872-9.329,5.271-12.728c3.4-3.4,7.92-5.272,12.729-5.272h0.144
		l0.145-0.021c0.153-0.022,16.025-2.238,61.057-2.364c45.021,0.126,60.892,2.342,61.046,2.364l0.144,0.021h0.145
		c4.809,0,9.329,1.873,12.729,5.272c3.397,3.399,5.271,7.92,5.271,12.728v0.061l0.003,0.06c0.06,0.97,5.75,96.277,5.75,125.09
		c0,0.314,0,0.621-0.002,0.92c-0.004,1.012-0.007,2.115-0.007,3.305c0,31.404,1.54,121.93,1.556,122.875
		c0,4.742-2.038,9.242-5.735,12.635c-3.746,3.439-8.738,5.332-14.06,5.332h-0.105l-0.106,0.014c-0.21,0.02-21.51,2.248-66.631,2.373
		C43.517,508.107,22.217,505.882,22.007,505.859z"/>
</g>
<path fill="#777777" d="M151.523,444.521c0,5.523-4.477,10-10,10H36.155c-5.521,0-10-4.477-10-10V250.333c0-5.522,4.479-10,10-10
	h105.368c5.523,0,10,4.478,10,10V444.521L151.523,444.521z"/>
<rect x="31.5" y="399.187" fill="#8E8E8E" width="114.5" height="46.334"/>
<polygon fill="#848484" points="140.16,370.359 37.34,370.351 31.5,399.187 146,399.187 "/>
<polygon fill="#8E8E8E" points="140.16,370.296 37.34,370.351 34.341,242.204 143.17,242.178 "/>
<path fill="#3D3D3D" d="M88.537,274.949c-23.371,0-42.317,18.946-42.317,42.316c0,23.371,18.946,42.318,42.317,42.318
	c23.369,0,42.315-18.947,42.315-42.318C130.854,293.895,111.907,274.949,88.537,274.949z"/>
<path fill="#505051" d="M67.518,436.634c0,1.381-1.119,2.5-2.5,2.5H41.331c-1.383,0-2.5-1.119-2.5-2.5v-27.871
	c0-1.381,1.117-2.5,2.5-2.5h23.687c1.381,0,2.5,1.119,2.5,2.5V436.634z"/>
<g>
	<circle fill="#777777" cx="91.828" cy="423.127" r="8.87"/>
	<circle fill="#8E8E8E" cx="91.828" cy="423.127" r="6.687"/>
	<circle fill="#777777" cx="91.828" cy="423.126" r="4.094"/>
	<circle cx="91.828" cy="423.126" r="2.252"/>
</g>
<g>
	<circle fill="#777777" cx="91.828" cy="423.127" r="8.87"/>
	<circle fill="#8E8E8E" cx="91.828" cy="423.127" r="6.687"/>
	<circle fill="#777777" cx="91.828" cy="423.126" r="4.094"/>
	<circle cx="91.828" cy="423.126" r="2.252"/>
</g>
<g>
	<circle fill="#777777" cx="119.084" cy="423.127" r="8.87"/>
	<circle fill="#8E8E8E" cx="119.084" cy="423.127" r="6.687"/>
	<circle fill="#777777" cx="119.084" cy="423.126" r="4.094"/>
	<circle cx="119.084" cy="423.126" r="2.252"/>
</g>
<path fill="#FFB850" d="M151.523,204.188c0,5.523-4.477,10-10,10H36.155c-5.521,0-10-4.477-10-10V10c0-5.523,4.479-10,10-10h105.368
	c5.523,0,10,4.477,10,10V204.188L151.523,204.188z"/>
<rect x="30.596" y="206.471" fill="#FCA83A" width="9.521" height="42.512"/>
<rect x="137.156" y="206.471" fill="#FCA83A" width="9.521" height="42.512"/>
<g>
	<ellipse fill="#B2B2B2" cx="53.812" cy="385.734" rx="8.917" ry="7.936"/>
	<ellipse fill="#CCCCCC" cx="53.812" cy="384.697" rx="8.917" ry="7.936"/>
	<path fill="#B2B2B2" d="M49.938,380.884l-0.021-0.006L49.938,380.884z"/>
	<polygon opacity="0.29" fill="#FFFFFF" enable-background="new    " points="52.735,385.113 54.888,385.113 56.23,383.429 
		55.752,381.332 53.812,380.398 51.873,381.332 51.394,383.429 	"/>
	<path opacity="0.53" fill="#FFFFFF" enable-background="new    " d="M51.873,381.332l-1.937-0.447
		c-0.685,0.855-1.109,1.922-1.109,3.104c0,0.381,0.051,0.748,0.132,1.104l2.435-1.66L51.873,381.332z"/>
	<path opacity="0.57" fill="#FFFFFF" enable-background="new    " d="M49.938,380.884l1.937,0.447l1.938-0.934V379
		C52.237,379,50.851,379.744,49.938,380.884z"/>
	<polygon fill="#B2B2B2" points="49.938,380.884 49.938,380.884 51.873,381.332 	"/>
	<path fill="#FFFFFF" d="M55.752,381.332l1.935-0.447c-0.914-1.139-2.3-1.883-3.874-1.883v1.398L55.752,381.332z"/>
	<path opacity="0.67" fill="#FFFFFF" enable-background="new    " d="M57.686,380.882l-1.935,0.449l0.479,2.098l2.433,1.658
		c0.082-0.355,0.137-0.721,0.137-1.102C58.798,382.806,58.371,381.738,57.686,380.882z"/>
	<path fill="#B2B2B2" d="M48.959,385.089l-0.007,0.006L48.959,385.089z"/>
	<path opacity="0.75" fill="#FFFFFF" enable-background="new    " d="M51.394,383.429l-2.435,1.66
		c0.339,1.494,1.349,2.721,2.694,3.373l1.082-3.35L51.394,383.429z"/>
	<polygon fill="#B2B2B2" points="48.959,385.089 48.959,385.089 51.394,383.429 	"/>
	<path opacity="0.51" fill="#FFFFFF" enable-background="new    " d="M52.735,385.113l-1.082,3.35
		c0.655,0.316,1.383,0.51,2.158,0.51c0.777,0,1.502-0.191,2.158-0.51l-1.082-3.35H52.735z"/>
	<path opacity="0.47" fill="#FFFFFF" enable-background="new    " d="M54.888,385.113l1.082,3.35
		c1.347-0.652,2.35-1.885,2.691-3.375l-2.433-1.658L54.888,385.113z"/>
</g>
<g>
	<ellipse fill="#B2B2B2" cx="123.462" cy="385.734" rx="8.917" ry="7.936"/>
	<ellipse fill="#CCCCCC" cx="123.462" cy="384.697" rx="8.917" ry="7.936"/>
	<path fill="#B2B2B2" d="M127.337,380.884l0.021-0.006L127.337,380.884z"/>
	<polygon opacity="0.29" fill="#4DAFFF" enable-background="new    " points="124.539,385.113 122.386,385.113 121.044,383.429 
		121.522,381.332 123.462,380.398 125.401,381.332 125.881,383.429 	"/>
	<path opacity="0.53" fill="#4DAFFF" enable-background="new    " d="M125.401,381.332l1.937-0.447
		c0.685,0.855,1.109,1.922,1.109,3.104c0,0.381-0.051,0.748-0.132,1.104l-2.435-1.66L125.401,381.332z"/>
	<path opacity="0.57" fill="#4DAFFF" enable-background="new    " d="M127.337,380.884l-1.937,0.447l-1.938-0.934V379
		C125.037,379,126.423,379.744,127.337,380.884z"/>
	<polygon fill="#B2B2B2" points="127.337,380.884 127.337,380.884 125.401,381.332 	"/>
	<path fill="#4DAFFF" d="M121.522,381.332l-1.935-0.447c0.914-1.139,2.3-1.883,3.874-1.883v1.398L121.522,381.332z"/>
	<path opacity="0.67" fill="#4DAFFF" enable-background="new    " d="M119.588,380.882l1.935,0.449l-0.479,2.098l-2.433,1.658
		c-0.082-0.355-0.137-0.721-0.137-1.102C118.477,382.806,118.902,381.738,119.588,380.882z"/>
	<path fill="#B2B2B2" d="M128.315,385.089l0.007,0.006L128.315,385.089z"/>
	<path opacity="0.75" fill="#4DAFFF" enable-background="new    " d="M125.881,383.429l2.435,1.66
		c-0.339,1.494-1.349,2.721-2.694,3.373l-1.082-3.35L125.881,383.429z"/>
	<polygon fill="#B2B2B2" points="128.315,385.089 128.315,385.089 125.881,383.429 	"/>
	<path opacity="0.51" fill="#4DAFFF" enable-background="new    " d="M124.539,385.113l1.082,3.35
		c-0.655,0.316-1.383,0.51-2.158,0.51c-0.777,0-1.502-0.191-2.158-0.51l1.082-3.35H124.539z"/>
	<path opacity="0.47" fill="#4DAFFF" enable-background="new    " d="M122.386,385.113l-1.082,3.35
		c-1.347-0.652-2.35-1.885-2.691-3.375l2.433-1.658L122.386,385.113z"/>
</g>
<g>
	<ellipse fill="#B2B2B2" cx="88.637" cy="385.734" rx="8.917" ry="7.936"/>
	<ellipse fill="#CCCCCC" cx="88.637" cy="384.697" rx="8.917" ry="7.936"/>
	<path fill="#B2B2B2" d="M84.763,380.884l-0.023-0.006L84.763,380.884z"/>
	<polygon opacity="0.29" fill="#FF0013" enable-background="new    " points="87.561,385.113 89.713,385.113 91.056,383.429 
		90.577,381.332 88.637,380.398 86.697,381.332 86.219,383.429 	"/>
	<path opacity="0.53" fill="#FF0013" enable-background="new    " d="M86.697,381.332l-1.935-0.447
		c-0.685,0.855-1.111,1.922-1.111,3.104c0,0.381,0.053,0.748,0.134,1.104l2.435-1.66L86.697,381.332z"/>
	<path opacity="0.57" fill="#FF0013" enable-background="new    " d="M84.763,380.884l1.935,0.447l1.939-0.934V379
		C87.063,379,85.676,379.744,84.763,380.884z"/>
	<polygon fill="#B2B2B2" points="84.763,380.884 84.763,380.884 86.697,381.332 	"/>
	<path fill="#FF0013" d="M90.577,381.332l1.935-0.447c-0.914-1.139-2.3-1.883-3.874-1.883v1.398L90.577,381.332z"/>
	<path opacity="0.67" fill="#FF0013" enable-background="new    " d="M92.511,380.882l-1.935,0.449l0.479,2.098l2.431,1.658
		c0.082-0.355,0.139-0.721,0.139-1.102C93.623,382.806,93.195,381.738,92.511,380.882z"/>
	<path fill="#B2B2B2" d="M83.784,385.089l-0.009,0.006L83.784,385.089z"/>
	<path opacity="0.75" fill="#FF0013" enable-background="new    " d="M86.219,383.429l-2.435,1.66
		c0.339,1.494,1.349,2.721,2.694,3.373l1.082-3.35L86.219,383.429z"/>
	<polygon fill="#B2B2B2" points="83.784,385.089 83.784,385.089 86.219,383.429 	"/>
	<path opacity="0.51" fill="#FF0013" enable-background="new    " d="M87.561,385.113l-1.082,3.35
		c0.655,0.316,1.381,0.51,2.158,0.51s1.502-0.191,2.158-0.51l-1.082-3.35H87.561z"/>
	<path opacity="0.47" fill="#FF0013" enable-background="new    " d="M89.713,385.113l1.082,3.35
		c1.347-0.652,2.35-1.885,2.689-3.375l-2.431-1.658L89.713,385.113z"/>
</g>
<g>
	<line fill="none" stroke="#5E5E5E" x1="88.839" y1="317.267" x2="88.839" y2="276.61"/>
	<line fill="none" stroke="#5E5E5E" x1="88.839" y1="317.267" x2="85.295" y2="276.765"/>
	<line fill="none" stroke="#5E5E5E" x1="88.839" y1="317.267" x2="81.778" y2="277.228"/>
	<line fill="none" stroke="#5E5E5E" x1="88.839" y1="317.267" x2="78.315" y2="277.996"/>
	<line fill="none" stroke="#5E5E5E" x1="88.839" y1="317.267" x2="74.934" y2="279.062"/>
	<line fill="none" stroke="#5E5E5E" x1="88.839" y1="317.267" x2="71.656" y2="280.419"/>
	<line fill="none" stroke="#5E5E5E" x1="88.839" y1="317.267" x2="68.511" y2="282.057"/>
	<line fill="none" stroke="#5E5E5E" x1="88.839" y1="317.267" x2="65.519" y2="283.962"/>
	<line fill="none" stroke="#5E5E5E" x1="88.839" y1="317.267" x2="62.706" y2="286.123"/>
	<line fill="none" stroke="#5E5E5E" x1="88.839" y1="317.267" x2="60.091" y2="288.518"/>
	<line fill="none" stroke="#5E5E5E" x1="88.839" y1="317.267" x2="57.694" y2="291.132"/>
	<line fill="none" stroke="#5E5E5E" x1="88.839" y1="317.267" x2="55.535" y2="293.946"/>
	<line fill="none" stroke="#5E5E5E" x1="88.839" y1="317.267" x2="53.629" y2="296.938"/>
	<line fill="none" stroke="#5E5E5E" x1="88.839" y1="317.267" x2="51.992" y2="300.083"/>
	<line fill="none" stroke="#5E5E5E" x1="88.839" y1="317.267" x2="50.634" y2="303.361"/>
	<line fill="none" stroke="#5E5E5E" x1="88.839" y1="317.267" x2="49.566" y2="306.744"/>
	<line fill="none" stroke="#5E5E5E" x1="88.839" y1="317.267" x2="48.8" y2="310.207"/>
	<line fill="none" stroke="#5E5E5E" x1="88.839" y1="317.267" x2="48.337" y2="313.722"/>
	<line fill="none" stroke="#5E5E5E" x1="88.839" y1="317.267" x2="48.182" y2="317.265"/>
	<line fill="none" stroke="#5E5E5E" x1="88.839" y1="317.267" x2="48.337" y2="320.81"/>
	<line fill="none" stroke="#5E5E5E" x1="88.839" y1="317.267" x2="48.799" y2="324.326"/>
	<line fill="none" stroke="#5E5E5E" x1="88.839" y1="317.267" x2="49.566" y2="327.789"/>
	<line fill="none" stroke="#5E5E5E" x1="88.839" y1="317.267" x2="50.634" y2="331.171"/>
	<line fill="none" stroke="#5E5E5E" x1="88.839" y1="317.267" x2="51.99" y2="334.449"/>
	<line fill="none" stroke="#5E5E5E" x1="88.839" y1="317.267" x2="53.629" y2="337.595"/>
	<line fill="none" stroke="#5E5E5E" x1="88.839" y1="317.267" x2="55.535" y2="340.585"/>
	<line fill="none" stroke="#5E5E5E" x1="88.839" y1="317.267" x2="57.692" y2="343.4"/>
	<line fill="none" stroke="#5E5E5E" x1="88.839" y1="317.267" x2="60.09" y2="346.015"/>
	<line fill="none" stroke="#5E5E5E" x1="88.839" y1="317.267" x2="62.705" y2="348.412"/>
	<line fill="none" stroke="#5E5E5E" x1="88.839" y1="317.267" x2="65.518" y2="350.57"/>
	<line fill="none" stroke="#5E5E5E" x1="88.839" y1="317.267" x2="68.51" y2="352.476"/>
	<line fill="none" stroke="#5E5E5E" x1="88.839" y1="317.267" x2="71.655" y2="354.115"/>
	<line fill="none" stroke="#5E5E5E" x1="88.839" y1="317.267" x2="74.933" y2="355.47"/>
	<line fill="none" stroke="#5E5E5E" x1="88.839" y1="317.267" x2="78.314" y2="356.539"/>
	<line fill="none" stroke="#5E5E5E" x1="88.839" y1="317.267" x2="81.777" y2="357.306"/>
	<line fill="none" stroke="#5E5E5E" x1="88.839" y1="317.267" x2="85.294" y2="357.769"/>
	<line fill="none" stroke="#5E5E5E" x1="88.839" y1="317.267" x2="88.838" y2="357.923"/>
	<line fill="none" stroke="#5E5E5E" x1="88.839" y1="317.267" x2="92.381" y2="357.769"/>
	<line fill="none" stroke="#5E5E5E" x1="88.839" y1="317.267" x2="95.897" y2="357.306"/>
	<line fill="none" stroke="#5E5E5E" x1="88.839" y1="317.267" x2="99.36" y2="356.539"/>
	<line fill="none" stroke="#5E5E5E" x1="88.839" y1="317.267" x2="102.744" y2="355.472"/>
	<line fill="none" stroke="#5E5E5E" x1="88.839" y1="317.267" x2="106.021" y2="354.115"/>
	<line fill="none" stroke="#5E5E5E" x1="88.839" y1="317.267" x2="109.167" y2="352.476"/>
	<line fill="none" stroke="#5E5E5E" x1="88.839" y1="317.267" x2="112.157" y2="350.572"/>
	<line fill="none" stroke="#5E5E5E" x1="88.839" y1="317.267" x2="114.972" y2="348.412"/>
	<line fill="none" stroke="#5E5E5E" x1="88.839" y1="317.267" x2="117.586" y2="346.015"/>
	<line fill="none" stroke="#5E5E5E" x1="88.839" y1="317.267" x2="119.981" y2="343.402"/>
	<line fill="none" stroke="#5E5E5E" x1="88.839" y1="317.267" x2="122.142" y2="340.587"/>
	<line fill="none" stroke="#5E5E5E" x1="88.839" y1="317.267" x2="124.048" y2="337.595"/>
	<line fill="none" stroke="#5E5E5E" x1="88.839" y1="317.267" x2="125.686" y2="334.451"/>
	<line fill="none" stroke="#5E5E5E" x1="88.839" y1="317.267" x2="127.043" y2="331.173"/>
	<line fill="none" stroke="#5E5E5E" x1="88.839" y1="317.267" x2="128.109" y2="327.791"/>
	<line fill="none" stroke="#5E5E5E" x1="88.839" y1="317.267" x2="128.877" y2="324.328"/>
	<line fill="none" stroke="#5E5E5E" x1="88.839" y1="317.267" x2="129.34" y2="320.81"/>
	<line fill="none" stroke="#5E5E5E" x1="88.839" y1="317.267" x2="129.495" y2="317.267"/>
	<line fill="none" stroke="#5E5E5E" x1="88.839" y1="317.267" x2="129.34" y2="313.724"/>
	<line fill="none" stroke="#5E5E5E" x1="88.839" y1="317.267" x2="128.878" y2="310.208"/>
	<line fill="none" stroke="#5E5E5E" x1="88.839" y1="317.267" x2="128.109" y2="306.746"/>
	<line fill="none" stroke="#5E5E5E" x1="88.839" y1="317.267" x2="127.044" y2="303.363"/>
	<line fill="none" stroke="#5E5E5E" x1="88.839" y1="317.267" x2="125.686" y2="300.085"/>
	<line fill="none" stroke="#5E5E5E" x1="88.839" y1="317.267" x2="124.048" y2="296.939"/>
	<line fill="none" stroke="#5E5E5E" x1="88.839" y1="317.267" x2="122.143" y2="293.949"/>
	<line fill="none" stroke="#5E5E5E" x1="88.839" y1="317.267" x2="119.983" y2="291.134"/>
	<line fill="none" stroke="#5E5E5E" x1="88.839" y1="317.267" x2="117.587" y2="288.52"/>
	<line fill="none" stroke="#5E5E5E" x1="88.839" y1="317.267" x2="114.973" y2="286.125"/>
	<line fill="none" stroke="#5E5E5E" x1="88.839" y1="317.267" x2="112.159" y2="283.964"/>
	<line fill="none" stroke="#5E5E5E" x1="88.839" y1="317.267" x2="109.168" y2="282.058"/>
	<line fill="none" stroke="#5E5E5E" x1="88.839" y1="317.267" x2="106.021" y2="280.419"/>
	<line fill="none" stroke="#5E5E5E" x1="88.839" y1="317.267" x2="102.745" y2="279.063"/>
	<line fill="none" stroke="#5E5E5E" x1="88.839" y1="317.267" x2="99.361" y2="277.996"/>
	<line fill="none" stroke="#5E5E5E" x1="88.839" y1="317.267" x2="95.898" y2="277.229"/>
	<line fill="none" stroke="#5E5E5E" x1="88.839" y1="317.267" x2="92.383" y2="276.766"/>
</g>
<g>
	<line fill="none" stroke="#353535" stroke-width="0.5" x1="88.839" y1="319.291" x2="88.839" y2="278.216"/>
	<line fill="none" stroke="#353535" stroke-width="0.5" x1="88.839" y1="319.291" x2="85.259" y2="278.373"/>
	<line fill="none" stroke="#353535" stroke-width="0.5" x1="88.839" y1="319.291" x2="81.707" y2="278.839"/>
	<line fill="none" stroke="#353535" stroke-width="0.5" x1="88.839" y1="319.291" x2="78.208" y2="279.615"/>
	<line fill="none" stroke="#353535" stroke-width="0.5" x1="88.839" y1="319.291" x2="74.79" y2="280.693"/>
	<line fill="none" stroke="#353535" stroke-width="0.5" x1="88.839" y1="319.291" x2="71.479" y2="282.065"/>
	<line fill="none" stroke="#353535" stroke-width="0.5" x1="88.839" y1="319.291" x2="68.302" y2="283.718"/>
	<line fill="none" stroke="#353535" stroke-width="0.5" x1="88.839" y1="319.291" x2="65.278" y2="285.645"/>
	<line fill="none" stroke="#353535" stroke-width="0.5" x1="88.839" y1="319.291" x2="62.437" y2="287.826"/>
	<line fill="none" stroke="#353535" stroke-width="0.5" x1="88.839" y1="319.291" x2="59.795" y2="290.248"/>
	<line fill="none" stroke="#353535" stroke-width="0.5" x1="88.839" y1="319.291" x2="57.375" y2="292.889"/>
	<line fill="none" stroke="#353535" stroke-width="0.5" x1="88.839" y1="319.291" x2="55.192" y2="295.73"/>
	<line fill="none" stroke="#353535" stroke-width="0.5" x1="88.839" y1="319.291" x2="53.268" y2="298.753"/>
	<line fill="none" stroke="#353535" stroke-width="0.5" x1="88.839" y1="319.291" x2="51.612" y2="301.931"/>
	<line fill="none" stroke="#353535" stroke-width="0.5" x1="88.839" y1="319.291" x2="50.24" y2="305.242"/>
	<line fill="none" stroke="#353535" stroke-width="0.5" x1="88.839" y1="319.291" x2="49.163" y2="308.66"/>
	<line fill="none" stroke="#353535" stroke-width="0.5" x1="88.839" y1="319.291" x2="48.388" y2="312.158"/>
	<line fill="none" stroke="#353535" stroke-width="0.5" x1="88.839" y1="319.291" x2="47.92" y2="315.71"/>
	<line fill="none" stroke="#353535" stroke-width="0.5" x1="88.839" y1="319.291" x2="47.764" y2="319.291"/>
	<line fill="none" stroke="#353535" stroke-width="0.5" x1="88.839" y1="319.291" x2="47.92" y2="322.871"/>
	<line fill="none" stroke="#353535" stroke-width="0.5" x1="88.839" y1="319.291" x2="48.388" y2="326.423"/>
	<line fill="none" stroke="#353535" stroke-width="0.5" x1="88.839" y1="319.291" x2="49.163" y2="329.921"/>
	<line fill="none" stroke="#353535" stroke-width="0.5" x1="88.839" y1="319.291" x2="50.24" y2="333.339"/>
	<line fill="none" stroke="#353535" stroke-width="0.5" x1="88.839" y1="319.291" x2="51.611" y2="336.65"/>
	<line fill="none" stroke="#353535" stroke-width="0.5" x1="88.839" y1="319.291" x2="53.267" y2="339.828"/>
	<line fill="none" stroke="#353535" stroke-width="0.5" x1="88.839" y1="319.291" x2="55.192" y2="342.851"/>
	<line fill="none" stroke="#353535" stroke-width="0.5" x1="88.839" y1="319.291" x2="57.373" y2="345.693"/>
	<line fill="none" stroke="#353535" stroke-width="0.5" x1="88.839" y1="319.291" x2="59.794" y2="348.333"/>
	<line fill="none" stroke="#353535" stroke-width="0.5" x1="88.839" y1="319.291" x2="62.436" y2="350.755"/>
	<line fill="none" stroke="#353535" stroke-width="0.5" x1="88.839" y1="319.291" x2="65.277" y2="352.937"/>
	<line fill="none" stroke="#353535" stroke-width="0.5" x1="88.839" y1="319.291" x2="68.301" y2="354.863"/>
	<line fill="none" stroke="#353535" stroke-width="0.5" x1="88.839" y1="319.291" x2="71.479" y2="356.517"/>
	<line fill="none" stroke="#353535" stroke-width="0.5" x1="88.839" y1="319.291" x2="74.79" y2="357.888"/>
	<line fill="none" stroke="#353535" stroke-width="0.5" x1="88.839" y1="319.291" x2="78.207" y2="358.966"/>
	<line fill="none" stroke="#353535" stroke-width="0.5" x1="88.839" y1="319.291" x2="81.706" y2="359.742"/>
	<line fill="none" stroke="#353535" stroke-width="0.5" x1="88.839" y1="319.291" x2="85.258" y2="360.208"/>
	<line fill="none" stroke="#353535" stroke-width="0.5" x1="88.839" y1="319.291" x2="88.838" y2="360.365"/>
	<line fill="none" stroke="#353535" stroke-width="0.5" x1="88.839" y1="319.291" x2="92.418" y2="360.208"/>
	<line fill="none" stroke="#353535" stroke-width="0.5" x1="88.839" y1="319.291" x2="95.97" y2="359.742"/>
	<line fill="none" stroke="#353535" stroke-width="0.5" x1="88.839" y1="319.291" x2="99.469" y2="358.966"/>
	<line fill="none" stroke="#353535" stroke-width="0.5" x1="88.839" y1="319.291" x2="102.887" y2="357.888"/>
	<line fill="none" stroke="#353535" stroke-width="0.5" x1="88.839" y1="319.291" x2="106.196" y2="356.517"/>
	<line fill="none" stroke="#353535" stroke-width="0.5" x1="88.839" y1="319.291" x2="109.376" y2="354.863"/>
	<line fill="none" stroke="#353535" stroke-width="0.5" x1="88.839" y1="319.291" x2="112.397" y2="352.937"/>
	<line fill="none" stroke="#353535" stroke-width="0.5" x1="88.839" y1="319.291" x2="115.24" y2="350.757"/>
	<line fill="none" stroke="#353535" stroke-width="0.5" x1="88.839" y1="319.291" x2="117.882" y2="348.335"/>
	<line fill="none" stroke="#353535" stroke-width="0.5" x1="88.839" y1="319.291" x2="120.303" y2="345.695"/>
	<line fill="none" stroke="#353535" stroke-width="0.5" x1="88.839" y1="319.291" x2="122.483" y2="342.851"/>
	<line fill="none" stroke="#353535" stroke-width="0.5" x1="88.839" y1="319.291" x2="124.41" y2="339.83"/>
	<line fill="none" stroke="#353535" stroke-width="0.5" x1="88.839" y1="319.291" x2="126.064" y2="336.652"/>
	<line fill="none" stroke="#353535" stroke-width="0.5" x1="88.839" y1="319.291" x2="127.436" y2="333.339"/>
	<line fill="none" stroke="#353535" stroke-width="0.5" x1="88.839" y1="319.291" x2="128.514" y2="329.921"/>
	<line fill="none" stroke="#353535" stroke-width="0.5" x1="88.839" y1="319.291" x2="129.289" y2="326.423"/>
	<line fill="none" stroke="#353535" stroke-width="0.5" x1="88.839" y1="319.291" x2="129.757" y2="322.873"/>
	<line fill="none" stroke="#353535" stroke-width="0.5" x1="88.839" y1="319.291" x2="129.913" y2="319.292"/>
	<line fill="none" stroke="#353535" stroke-width="0.5" x1="88.839" y1="319.291" x2="129.757" y2="315.712"/>
	<line fill="none" stroke="#353535" stroke-width="0.5" x1="88.839" y1="319.291" x2="129.29" y2="312.16"/>
	<line fill="none" stroke="#353535" stroke-width="0.5" x1="88.839" y1="319.291" x2="128.515" y2="308.662"/>
	<line fill="none" stroke="#353535" stroke-width="0.5" x1="88.839" y1="319.291" x2="127.436" y2="305.244"/>
	<line fill="none" stroke="#353535" stroke-width="0.5" x1="88.839" y1="319.291" x2="126.064" y2="301.933"/>
	<line fill="none" stroke="#353535" stroke-width="0.5" x1="88.839" y1="319.291" x2="124.41" y2="298.755"/>
	<line fill="none" stroke="#353535" stroke-width="0.5" x1="88.839" y1="319.291" x2="122.483" y2="295.732"/>
	<line fill="none" stroke="#353535" stroke-width="0.5" x1="88.839" y1="319.291" x2="120.304" y2="292.89"/>
	<line fill="none" stroke="#353535" stroke-width="0.5" x1="88.839" y1="319.291" x2="117.883" y2="290.25"/>
	<line fill="none" stroke="#353535" stroke-width="0.5" x1="88.839" y1="319.291" x2="115.242" y2="287.828"/>
	<line fill="none" stroke="#353535" stroke-width="0.5" x1="88.839" y1="319.291" x2="112.398" y2="285.646"/>
	<line fill="none" stroke="#353535" stroke-width="0.5" x1="88.839" y1="319.291" x2="109.377" y2="283.72"/>
	<line fill="none" stroke="#353535" stroke-width="0.5" x1="88.839" y1="319.291" x2="106.197" y2="282.066"/>
	<line fill="none" stroke="#353535" stroke-width="0.5" x1="88.839" y1="319.291" x2="102.888" y2="280.694"/>
	<line fill="none" stroke="#353535" stroke-width="0.5" x1="88.839" y1="319.291" x2="99.47" y2="279.617"/>
	<line fill="none" stroke="#353535" stroke-width="0.5" x1="88.839" y1="319.291" x2="95.971" y2="278.841"/>
	<line fill="none" stroke="#353535" stroke-width="0.5" x1="88.839" y1="319.291" x2="92.419" y2="278.375"/>
</g>
<g>
	<line fill="none" stroke="#A5A5A5" stroke-width="0.5" x1="88.839" y1="314.539" x2="88.839" y2="273.464"/>
	<line fill="none" stroke="#A5A5A5" stroke-width="0.5" x1="88.839" y1="314.539" x2="85.259" y2="273.621"/>
	<line fill="none" stroke="#A5A5A5" stroke-width="0.5" x1="88.839" y1="314.539" x2="81.707" y2="274.087"/>
	<line fill="none" stroke="#A5A5A5" stroke-width="0.5" x1="88.839" y1="314.539" x2="78.208" y2="274.865"/>
	<line fill="none" stroke="#A5A5A5" stroke-width="0.5" x1="88.839" y1="314.539" x2="74.79" y2="275.941"/>
	<line fill="none" stroke="#A5A5A5" stroke-width="0.5" x1="88.839" y1="314.539" x2="71.479" y2="277.313"/>
	<line fill="none" stroke="#A5A5A5" stroke-width="0.5" x1="88.839" y1="314.539" x2="68.302" y2="278.966"/>
	<line fill="none" stroke="#A5A5A5" stroke-width="0.5" x1="88.839" y1="314.539" x2="65.278" y2="280.893"/>
	<line fill="none" stroke="#A5A5A5" stroke-width="0.5" x1="88.839" y1="314.539" x2="62.437" y2="283.074"/>
	<line fill="none" stroke="#A5A5A5" stroke-width="0.5" x1="88.839" y1="314.539" x2="59.795" y2="285.496"/>
	<line fill="none" stroke="#A5A5A5" stroke-width="0.5" x1="88.839" y1="314.539" x2="57.375" y2="288.136"/>
	<line fill="none" stroke="#A5A5A5" stroke-width="0.5" x1="88.839" y1="314.539" x2="55.192" y2="290.979"/>
	<line fill="none" stroke="#A5A5A5" stroke-width="0.5" x1="88.839" y1="314.539" x2="53.268" y2="294.001"/>
	<line fill="none" stroke="#A5A5A5" stroke-width="0.5" x1="88.839" y1="314.539" x2="51.612" y2="297.179"/>
	<line fill="none" stroke="#A5A5A5" stroke-width="0.5" x1="88.839" y1="314.539" x2="50.24" y2="300.49"/>
	<line fill="none" stroke="#A5A5A5" stroke-width="0.5" x1="88.839" y1="314.539" x2="49.163" y2="303.908"/>
	<line fill="none" stroke="#A5A5A5" stroke-width="0.5" x1="88.839" y1="314.539" x2="48.388" y2="307.406"/>
	<line fill="none" stroke="#A5A5A5" stroke-width="0.5" x1="88.839" y1="314.539" x2="47.92" y2="310.958"/>
	<line fill="none" stroke="#A5A5A5" stroke-width="0.5" x1="88.839" y1="314.539" x2="47.764" y2="314.539"/>
	<line fill="none" stroke="#A5A5A5" stroke-width="0.5" x1="88.839" y1="314.539" x2="47.92" y2="318.119"/>
	<line fill="none" stroke="#A5A5A5" stroke-width="0.5" x1="88.839" y1="314.539" x2="48.388" y2="321.671"/>
	<line fill="none" stroke="#A5A5A5" stroke-width="0.5" x1="88.839" y1="314.539" x2="49.163" y2="325.169"/>
	<line fill="none" stroke="#A5A5A5" stroke-width="0.5" x1="88.839" y1="314.539" x2="50.24" y2="328.587"/>
	<line fill="none" stroke="#A5A5A5" stroke-width="0.5" x1="88.839" y1="314.539" x2="51.611" y2="331.898"/>
	<line fill="none" stroke="#A5A5A5" stroke-width="0.5" x1="88.839" y1="314.539" x2="53.267" y2="335.076"/>
	<line fill="none" stroke="#A5A5A5" stroke-width="0.5" x1="88.839" y1="314.539" x2="55.192" y2="338.099"/>
	<line fill="none" stroke="#A5A5A5" stroke-width="0.5" x1="88.839" y1="314.539" x2="57.373" y2="340.941"/>
	<line fill="none" stroke="#A5A5A5" stroke-width="0.5" x1="88.839" y1="314.539" x2="59.794" y2="343.582"/>
	<line fill="none" stroke="#A5A5A5" stroke-width="0.5" x1="88.839" y1="314.539" x2="62.436" y2="346.003"/>
	<line fill="none" stroke="#A5A5A5" stroke-width="0.5" x1="88.839" y1="314.539" x2="65.277" y2="348.185"/>
	<line fill="none" stroke="#A5A5A5" stroke-width="0.5" x1="88.839" y1="314.539" x2="68.301" y2="350.111"/>
	<line fill="none" stroke="#A5A5A5" stroke-width="0.5" x1="88.839" y1="314.539" x2="71.479" y2="351.765"/>
	<line fill="none" stroke="#A5A5A5" stroke-width="0.5" x1="88.839" y1="314.539" x2="74.79" y2="353.136"/>
	<line fill="none" stroke="#A5A5A5" stroke-width="0.5" x1="88.839" y1="314.539" x2="78.207" y2="354.214"/>
	<line fill="none" stroke="#A5A5A5" stroke-width="0.5" x1="88.839" y1="314.539" x2="81.706" y2="354.99"/>
	<line fill="none" stroke="#A5A5A5" stroke-width="0.5" x1="88.839" y1="314.539" x2="85.258" y2="355.457"/>
	<line fill="none" stroke="#A5A5A5" stroke-width="0.5" x1="88.839" y1="314.539" x2="88.838" y2="355.613"/>
	<line fill="none" stroke="#A5A5A5" stroke-width="0.5" x1="88.839" y1="314.539" x2="92.418" y2="355.457"/>
	<line fill="none" stroke="#A5A5A5" stroke-width="0.5" x1="88.839" y1="314.539" x2="95.97" y2="354.99"/>
	<line fill="none" stroke="#A5A5A5" stroke-width="0.5" x1="88.839" y1="314.539" x2="99.469" y2="354.214"/>
	<line fill="none" stroke="#A5A5A5" stroke-width="0.5" x1="88.839" y1="314.539" x2="102.887" y2="353.136"/>
	<line fill="none" stroke="#A5A5A5" stroke-width="0.5" x1="88.839" y1="314.539" x2="106.196" y2="351.765"/>
	<line fill="none" stroke="#A5A5A5" stroke-width="0.5" x1="88.839" y1="314.539" x2="109.376" y2="350.111"/>
	<line fill="none" stroke="#A5A5A5" stroke-width="0.5" x1="88.839" y1="314.539" x2="112.397" y2="348.185"/>
	<line fill="none" stroke="#A5A5A5" stroke-width="0.5" x1="88.839" y1="314.539" x2="115.24" y2="346.005"/>
	<line fill="none" stroke="#A5A5A5" stroke-width="0.5" x1="88.839" y1="314.539" x2="117.882" y2="343.583"/>
	<line fill="none" stroke="#A5A5A5" stroke-width="0.5" x1="88.839" y1="314.539" x2="120.303" y2="340.943"/>
	<line fill="none" stroke="#A5A5A5" stroke-width="0.5" x1="88.839" y1="314.539" x2="122.483" y2="338.099"/>
	<line fill="none" stroke="#A5A5A5" stroke-width="0.5" x1="88.839" y1="314.539" x2="124.41" y2="335.078"/>
	<line fill="none" stroke="#A5A5A5" stroke-width="0.5" x1="88.839" y1="314.539" x2="126.064" y2="331.9"/>
	<line fill="none" stroke="#A5A5A5" stroke-width="0.5" x1="88.839" y1="314.539" x2="127.436" y2="328.587"/>
	<line fill="none" stroke="#A5A5A5" stroke-width="0.5" x1="88.839" y1="314.539" x2="128.514" y2="325.169"/>
	<line fill="none" stroke="#A5A5A5" stroke-width="0.5" x1="88.839" y1="314.539" x2="129.289" y2="321.671"/>
	<line fill="none" stroke="#A5A5A5" stroke-width="0.5" x1="88.839" y1="314.539" x2="129.757" y2="318.121"/>
	<line fill="none" stroke="#A5A5A5" stroke-width="0.5" x1="88.839" y1="314.539" x2="129.913" y2="314.541"/>
	<line fill="none" stroke="#A5A5A5" stroke-width="0.5" x1="88.839" y1="314.539" x2="129.757" y2="310.96"/>
	<line fill="none" stroke="#A5A5A5" stroke-width="0.5" x1="88.839" y1="314.539" x2="129.29" y2="307.408"/>
	<line fill="none" stroke="#A5A5A5" stroke-width="0.5" x1="88.839" y1="314.539" x2="128.515" y2="303.91"/>
	<line fill="none" stroke="#A5A5A5" stroke-width="0.5" x1="88.839" y1="314.539" x2="127.436" y2="300.492"/>
	<line fill="none" stroke="#A5A5A5" stroke-width="0.5" x1="88.839" y1="314.539" x2="126.064" y2="297.181"/>
	<line fill="none" stroke="#A5A5A5" stroke-width="0.5" x1="88.839" y1="314.539" x2="124.41" y2="294.001"/>
	<line fill="none" stroke="#A5A5A5" stroke-width="0.5" x1="88.839" y1="314.539" x2="122.483" y2="290.98"/>
	<line fill="none" stroke="#A5A5A5" stroke-width="0.5" x1="88.839" y1="314.539" x2="120.304" y2="288.138"/>
	<line fill="none" stroke="#A5A5A5" stroke-width="0.5" x1="88.839" y1="314.539" x2="117.883" y2="285.496"/>
	<line fill="none" stroke="#A5A5A5" stroke-width="0.5" x1="88.839" y1="314.539" x2="115.242" y2="283.076"/>
	<line fill="none" stroke="#A5A5A5" stroke-width="0.5" x1="88.839" y1="314.539" x2="112.398" y2="280.894"/>
	<line fill="none" stroke="#A5A5A5" stroke-width="0.5" x1="88.839" y1="314.539" x2="109.377" y2="278.968"/>
	<line fill="none" stroke="#A5A5A5" stroke-width="0.5" x1="88.839" y1="314.539" x2="106.197" y2="277.313"/>
	<line fill="none" stroke="#A5A5A5" stroke-width="0.5" x1="88.839" y1="314.539" x2="102.888" y2="275.942"/>
	<line fill="none" stroke="#A5A5A5" stroke-width="0.5" x1="88.839" y1="314.539" x2="99.47" y2="274.865"/>
	<line fill="none" stroke="#A5A5A5" stroke-width="0.5" x1="88.839" y1="314.539" x2="95.971" y2="274.089"/>
	<line fill="none" stroke="#A5A5A5" stroke-width="0.5" x1="88.839" y1="314.539" x2="92.419" y2="273.623"/>
</g>
<path fill="#777777" d="M88.537,273.292c-24.286,0-43.977,19.688-43.977,43.975s19.688,43.975,43.977,43.975
	c24.285,0,43.975-19.688,43.975-43.975S112.822,273.292,88.537,273.292z M88.537,355.923c-21.351,0-38.656-17.307-38.656-38.656
	s17.307-38.657,38.656-38.657c21.349,0,38.654,17.308,38.654,38.655C127.192,338.615,109.886,355.923,88.537,355.923z"/>
<path fill="#595959" d="M398.038,483.566c0,3.912-1.586,7.457-4.152,10.02c-2.564,2.566-39.848,14.152-72.85,14.152
	c-33,0-70.283-11.586-72.849-14.152c-2.565-2.563-4.151-6.107-4.151-10.02V367.238v-76.326c0-3.914,1.586-7.457,4.151-10.021
	c2.564-2.564,6.107-4.15,10.021-4.15h62.826h62.827c3.914,0,7.457,1.586,10.021,4.15c2.565,2.564,4.152,6.107,4.152,10.021v76.326
	v116.328H398.038z"/>
<path fill="#424242" d="M398.038,56.241c0-3.913-1.586-7.457-4.152-10.021c-2.564-2.564-39.848-14.151-72.85-14.151
	c-33,0-70.283,11.586-72.849,14.151s-4.151,6.108-4.151,10.021v116.327v76.327c0,3.913,1.586,7.458,4.151,10.022
	c2.564,2.563,6.107,4.149,10.021,4.149h62.826h62.827c3.914,0,7.457-1.586,10.021-4.149c2.565-2.564,4.152-6.109,4.152-10.022
	v-76.327V56.241H398.038z"/>
<path fill="#333333" d="M398.038,468.232c0,3.912-1.586,7.457-4.152,10.021c-2.564,2.564-39.848,14.15-72.85,14.15
	c-33,0-70.283-11.586-72.849-14.15s-4.151-6.109-4.151-10.021V351.906v-76.328c0-3.912,1.586-7.457,4.151-10.021
	c2.564-2.563,6.107-4.151,10.021-4.151h62.826h62.827c3.914,0,7.457,1.588,10.021,4.151c2.565,2.563,4.152,6.108,4.152,10.021
	v76.328v116.326H398.038z"/>
<path d="M382.731,343.318c0,3.914-3.173,7.088-7.087,7.088H266.43c-3.914,0-7.087-3.174-7.087-7.088v-59.494
	c0-3.912,3.173-7.086,7.087-7.086h109.215c3.914,0,7.087,3.174,7.087,7.086V343.318z"/>
<g>
	<path fill="#333333" d="M257.19,242.429c0,7.265-13.153,38.154-13.153,38.154s-13.154-30.89-13.154-38.154
		s5.891-13.154,13.154-13.154C251.302,229.275,257.19,235.165,257.19,242.429z"/>
	<rect x="244.036" y="229.275" fill="#333333" width="14.174" height="36.281"/>
	<path fill="#333333" d="M384.884,242.429c0,7.265,13.154,38.154,13.154,38.154s13.153-30.89,13.153-38.154
		s-5.891-13.154-13.153-13.154C390.772,229.275,384.884,235.165,384.884,242.429z"/>
	<rect x="383.864" y="229.275" fill="#333333" width="14.175" height="36.281"/>
</g>
<g>
	<g>
		<path fill="#262626" d="M259.041,369.912c0,5.982,8.32,13.211,18.653,13.211c10.334,0,18.655-7.229,18.655-13.211
			c0-5.594-6.625-8.674-18.655-8.674C265.666,361.238,259.041,364.318,259.041,369.912z"/>
		<path fill="#3F3F3F" d="M261.041,369.912c0-4.01,6.226-6.404,16.653-6.404c10.429,0,16.655,2.395,16.655,6.404
			c0,4.406-6.994,10.941-16.655,10.941S261.041,374.318,261.041,369.912z"/>
	</g>
	<g>
		<path fill="#262626" d="M302.382,369.912c0,5.982,8.322,13.211,18.654,13.211c10.334,0,18.655-7.229,18.655-13.211
			c0-5.594-6.625-8.674-18.655-8.674C309.007,361.238,302.382,364.318,302.382,369.912z"/>
		<path fill="#3F3F3F" d="M304.382,369.912c0-4.01,6.227-6.404,16.654-6.404c10.43,0,16.655,2.395,16.655,6.404
			c0,4.406-6.994,10.941-16.655,10.941C311.376,380.853,304.382,374.318,304.382,369.912z"/>
	</g>
	<g>
		<path fill="#262626" d="M345.724,369.912c0,5.982,8.321,13.211,18.654,13.211c10.334,0,18.654-7.229,18.654-13.211
			c0-5.594-6.625-8.674-18.654-8.674S345.724,364.318,345.724,369.912z"/>
		<path fill="#3F3F3F" d="M347.724,369.912c0-4.01,6.226-6.404,16.654-6.404c10.428,0,16.654,2.395,16.654,6.404
			c0,4.406-6.993,10.941-16.654,10.941S347.724,374.318,347.724,369.912z"/>
	</g>
</g>
<g>
	<g>
		<path fill="#262626" d="M259.041,395.533c0,5.982,8.32,13.211,18.653,13.211c10.334,0,18.655-7.229,18.655-13.211
			c0-5.594-6.625-8.674-18.655-8.674C265.666,386.859,259.041,389.937,259.041,395.533z"/>
		<path fill="#3F3F3F" d="M261.041,395.533c0-4.012,6.226-6.404,16.653-6.404c10.429,0,16.655,2.395,16.655,6.404
			c0,4.406-6.994,10.941-16.655,10.941S261.041,399.937,261.041,395.533z"/>
	</g>
	<g>
		<path fill="#262626" d="M302.382,395.533c0,5.982,8.322,13.211,18.654,13.211c10.334,0,18.655-7.229,18.655-13.211
			c0-5.594-6.625-8.674-18.655-8.674C309.007,386.859,302.382,389.937,302.382,395.533z"/>
		<path fill="#3F3F3F" d="M304.382,395.533c0-4.012,6.227-6.404,16.654-6.404c10.43,0,16.655,2.395,16.655,6.404
			c0,4.406-6.994,10.941-16.655,10.941C311.376,406.474,304.382,399.937,304.382,395.533z"/>
	</g>
	<g>
		<path fill="#262626" d="M345.724,395.533c0,5.982,8.321,13.211,18.654,13.211c10.334,0,18.654-7.229,18.654-13.211
			c0-5.594-6.625-8.674-18.654-8.674S345.724,389.937,345.724,395.533z"/>
		<path fill="#3F3F3F" d="M347.724,395.533c0-4.012,6.226-6.404,16.654-6.404c10.428,0,16.654,2.395,16.654,6.404
			c0,4.406-6.993,10.941-16.654,10.941S347.724,399.937,347.724,395.533z"/>
	</g>
</g>
<g>
	<g>
		<path fill="#262626" d="M259.041,421.718c0,5.984,8.32,13.211,18.653,13.211c10.334,0,18.655-7.227,18.655-13.211
			c0-5.594-6.625-8.674-18.655-8.674C265.666,413.044,259.041,416.125,259.041,421.718z"/>
		<path fill="#3F3F3F" d="M261.041,421.718c0-4.01,6.226-6.402,16.653-6.402c10.429,0,16.655,2.393,16.655,6.402
			c0,4.406-6.994,10.943-16.655,10.943S261.041,426.125,261.041,421.718z"/>
	</g>
	<g>
		<path fill="#262626" d="M302.382,421.718c0,5.984,8.322,13.211,18.654,13.211c10.334,0,18.655-7.227,18.655-13.211
			c0-5.594-6.625-8.674-18.655-8.674C309.007,413.044,302.382,416.125,302.382,421.718z"/>
		<path fill="#3F3F3F" d="M304.382,421.718c0-4.01,6.227-6.402,16.654-6.402c10.43,0,16.655,2.393,16.655,6.402
			c0,4.406-6.994,10.943-16.655,10.943C311.376,432.662,304.382,426.125,304.382,421.718z"/>
	</g>
	<g>
		<path fill="#262626" d="M345.724,421.718c0,5.984,8.321,13.211,18.654,13.211c10.334,0,18.654-7.227,18.654-13.211
			c0-5.594-6.625-8.674-18.654-8.674S345.724,416.125,345.724,421.718z"/>
		<path fill="#3F3F3F" d="M347.724,421.718c0-4.01,6.226-6.402,16.654-6.402c10.428,0,16.654,2.393,16.654,6.402
			c0,4.406-6.993,10.943-16.654,10.943S347.724,426.125,347.724,421.718z"/>
	</g>
</g>
<g>
	<path d="M64.109,563.993h-3.155v-24.469h-1.376v-0.102l1.987-10.68h2.543L64.109,563.993L64.109,563.993z"/>
	<path d="M83.758,561.379c0,0.765-0.242,1.391-0.728,1.879c-0.484,0.49-1.112,0.734-1.887,0.734h-8.711
		c-0.717,0-1.311-0.244-1.781-0.734c-0.472-0.488-0.707-1.115-0.707-1.879v-7.637h3.125v7.469h7.563v-13H72.23
		c-0.716,0-1.297-0.231-1.742-0.697c-0.444-0.465-0.668-1.066-0.668-1.803v-14.355c0-0.764,0.225-1.391,0.673-1.879
		c0.447-0.489,1.026-0.734,1.737-0.734h8.914c0.771,0,1.399,0.245,1.885,0.734c0.486,0.488,0.729,1.115,0.729,1.879L83.758,561.379
		L83.758,561.379z M80.633,545.493v-13.969h-7.688v13.969H80.633z"/>
	<path d="M103.427,561.379c0,0.765-0.242,1.391-0.728,1.879c-0.484,0.49-1.111,0.734-1.886,0.734h-8.713
		c-0.766,0-1.393-0.244-1.881-0.734c-0.488-0.488-0.731-1.115-0.731-1.879v-30.023c0-0.764,0.243-1.391,0.731-1.879
		c0.488-0.489,1.115-0.734,1.881-0.734h8.623c0.771,0,1.399,0.245,1.883,0.734c0.484,0.488,0.727,1.115,0.727,1.879v7.668h-3.125
		v-7.5h-7.595v13.031h8.2c0.773,0,1.401,0.242,1.886,0.725c0.485,0.483,0.728,1.112,0.728,1.889V561.379z M100.302,561.211v-13.938
		h-7.688v13.938H100.302z"/>
	<path d="M123.253,561.379c0,0.765-0.248,1.391-0.744,1.879c-0.496,0.49-1.118,0.734-1.868,0.734h-9.088
		c-0.771,0-1.398-0.244-1.885-0.734c-0.484-0.488-0.729-1.115-0.729-1.879v-11.364c0-1.017,0.383-1.772,1.149-2.269l3.424-2.207
		l-3.334-2.072c-0.766-0.49-1.148-1.248-1.148-2.274v-9.837c0-0.764,0.246-1.391,0.739-1.879c0.493-0.489,1.125-0.734,1.896-0.734
		h8.93c0.75,0,1.365,0.245,1.846,0.734c0.481,0.488,0.722,1.115,0.722,1.879v9.837c0,1.026-0.392,1.784-1.175,2.274l-3.316,2.072
		l3.363,2.207c0.813,0.526,1.219,1.282,1.219,2.269L123.253,561.379L123.253,561.379z M120.097,561.211v-11.664l-4.016-2.635
		l-4.017,2.635v11.664H120.097z M120.007,541.622v-10.098h-7.853v10.098l3.927,2.611L120.007,541.622z"/>
</g>
<g>
	<path d="M291.109,563.993h-3.155v-24.469h-1.375v-0.102l1.987-10.68h2.543V563.993z"/>
	<path d="M310.758,561.379c0,0.765-0.242,1.391-0.728,1.879c-0.484,0.49-1.112,0.734-1.887,0.734h-8.711
		c-0.717,0-1.311-0.244-1.781-0.734c-0.472-0.488-0.707-1.115-0.707-1.879v-7.637h3.125v7.469h7.563v-13h-8.402
		c-0.716,0-1.297-0.231-1.742-0.697c-0.444-0.465-0.668-1.066-0.668-1.803v-14.355c0-0.764,0.225-1.391,0.672-1.879
		c0.448-0.489,1.027-0.734,1.738-0.734h8.914c0.771,0,1.399,0.245,1.885,0.734c0.486,0.488,0.729,1.115,0.729,1.879L310.758,561.379
		L310.758,561.379z M307.633,545.493v-13.969h-7.688v13.969H307.633z"/>
	<path d="M330.302,561.379c0,0.765-0.242,1.391-0.728,1.879c-0.484,0.49-1.111,0.734-1.886,0.734h-8.713
		c-0.717,0-1.311-0.244-1.781-0.734c-0.47-0.488-0.706-1.115-0.706-1.879v-7.637h3.125v7.469h7.563v-13h-8.402
		c-0.716,0-1.297-0.231-1.742-0.697c-0.444-0.465-0.668-1.066-0.668-1.803v-14.355c0-0.764,0.225-1.391,0.673-1.879
		c0.447-0.489,1.026-0.734,1.737-0.734h8.915c0.771,0,1.398,0.245,1.884,0.734c0.486,0.488,0.729,1.115,0.729,1.879L330.302,561.379
		L330.302,561.379z M327.177,545.493v-13.969h-7.688v13.969H327.177z"/>
	<path d="M349.972,561.379c0,0.765-0.242,1.391-0.727,1.879c-0.485,0.49-1.112,0.734-1.887,0.734h-8.713
		c-0.766,0-1.393-0.244-1.881-0.734c-0.488-0.488-0.73-1.115-0.73-1.879v-30.023c0-0.764,0.242-1.391,0.73-1.879
		c0.488-0.489,1.115-0.734,1.881-0.734h8.623c0.771,0,1.399,0.245,1.883,0.734c0.484,0.488,0.727,1.115,0.727,1.879v7.668h-3.125
		v-7.5h-7.594v13.031h8.199c0.773,0,1.401,0.242,1.887,0.725c0.484,0.483,0.727,1.112,0.727,1.889V561.379z M346.847,561.211
		v-13.938h-7.688v13.938H346.847z"/>
</g>
<g>
	<g>
		<path fill="#262626" d="M263.566,441.548c-3.49,1.342-4.224,3.377-4.224,4.854c0,4.49,6.408,9.916,14.366,9.916
			c7.959,0,14.367-5.426,14.367-9.916c0-1.477-0.732-3.512-4.225-4.854c-2.421-0.932-5.929-1.424-10.144-1.424
			C269.495,440.125,265.987,440.619,263.566,441.548z"/>
		<path fill="#3F3F3F" d="M261.343,446.402c0-1.395,1.796-2.293,2.865-2.703c2.217-0.854,5.502-1.303,9.501-1.303
			s7.284,0.449,9.501,1.303c1.069,0.41,2.866,1.309,2.866,2.703c0,2.625-4.816,7.645-12.367,7.645
			C266.157,454.046,261.343,449.027,261.343,446.402z"/>
	</g>
	<g>
		<path fill="#262626" d="M358.222,441.548c-3.491,1.342-4.224,3.377-4.224,4.854c0,4.49,6.407,9.916,14.365,9.916
			c7.959,0,14.367-5.426,14.367-9.916c0-1.477-0.731-3.512-4.224-4.854c-2.421-0.932-5.929-1.424-10.145-1.424
			C364.15,440.125,360.643,440.619,358.222,441.548z"/>
		<path fill="#3F3F3F" d="M355.998,446.402c0-1.395,1.796-2.293,2.864-2.703c2.218-0.854,5.502-1.303,9.501-1.303
			s7.284,0.449,9.501,1.303c1.07,0.41,2.866,1.309,2.866,2.703c0,2.625-4.815,7.645-12.367,7.645
			C360.813,454.046,355.998,449.027,355.998,446.402z"/>
	</g>
	<g>
		<path fill="#262626" d="M326.67,441.548c-3.491,1.342-4.225,3.377-4.225,4.854c0,4.49,6.408,9.916,14.366,9.916
			c7.959,0,14.367-5.426,14.367-9.916c0-1.477-0.732-3.512-4.224-4.854c-2.421-0.932-5.93-1.424-10.145-1.424
			C332.599,440.125,329.091,440.619,326.67,441.548z"/>
		<path fill="#3F3F3F" d="M324.446,446.402c0-1.395,1.797-2.293,2.865-2.703c2.217-0.854,5.502-1.303,9.501-1.303
			s7.284,0.449,9.501,1.303c1.07,0.41,2.866,1.309,2.866,2.703c0,2.625-4.816,7.645-12.367,7.645S324.446,449.027,324.446,446.402z"
			/>
	</g>
	<g>
		<path fill="#262626" d="M295.118,441.548c-3.491,1.342-4.225,3.377-4.225,4.854c0,4.49,6.408,9.916,14.366,9.916
			c7.959,0,14.367-5.426,14.367-9.916c0-1.477-0.732-3.512-4.225-4.854c-2.421-0.932-5.929-1.424-10.144-1.424
			C301.047,440.125,297.539,440.619,295.118,441.548z"/>
		<path fill="#3F3F3F" d="M292.895,446.402c0-1.395,1.796-2.293,2.865-2.703c2.217-0.854,5.502-1.303,9.501-1.303
			s7.284,0.449,9.501,1.303c1.07,0.41,2.866,1.309,2.866,2.703c0,2.625-4.816,7.645-12.367,7.645S292.895,449.027,292.895,446.402z"
			/>
	</g>
</g>
<g>
	<g>
		<path fill="#262626" d="M279.342,461.121c-3.49,1.342-4.223,3.379-4.223,4.852c0,4.49,6.407,9.916,14.364,9.916
			c7.959,0,14.367-5.426,14.367-9.916c0-1.473-0.731-3.51-4.223-4.852c-2.422-0.932-5.931-1.422-10.146-1.422
			C285.271,459.699,281.764,460.189,279.342,461.121z"/>
		<path fill="#3F3F3F" d="M277.119,465.97c0-1.393,1.795-2.291,2.864-2.701c2.218-0.854,5.502-1.303,9.5-1.303
			c4,0,7.285,0.449,9.502,1.303c1.07,0.41,2.865,1.311,2.865,2.701c0,2.627-4.815,7.648-12.367,7.648
			C281.933,473.619,277.119,468.597,277.119,465.97z"/>
	</g>
	<g>
		<path fill="#262626" d="M342.445,461.121c-3.489,1.342-4.223,3.379-4.223,4.852c0,4.49,6.408,9.916,14.365,9.916
			c7.959,0,14.367-5.426,14.367-9.916c0-1.473-0.732-3.51-4.224-4.852c-2.422-0.932-5.93-1.422-10.145-1.422
			C348.375,459.699,344.866,460.189,342.445,461.121z"/>
		<path fill="#3F3F3F" d="M340.223,465.97c0-1.393,1.795-2.291,2.865-2.701c2.217-0.854,5.502-1.303,9.5-1.303
			c4,0,7.285,0.449,9.502,1.303c1.07,0.41,2.865,1.311,2.865,2.701c0,2.627-4.816,7.648-12.367,7.648
			S340.223,468.597,340.223,465.97z"/>
	</g>
	<g>
		<path fill="#262626" d="M310.895,461.121c-3.492,1.342-4.225,3.379-4.225,4.852c0,4.49,6.408,9.916,14.367,9.916
			s14.366-5.426,14.366-9.916c0-1.473-0.731-3.51-4.225-4.852c-2.42-0.932-5.928-1.422-10.143-1.422
			C316.82,459.699,313.314,460.189,310.895,461.121z"/>
		<path fill="#3F3F3F" d="M308.67,465.97c0-1.393,1.797-2.291,2.865-2.701c2.217-0.854,5.502-1.303,9.502-1.303
			c3.998,0,7.282,0.449,9.5,1.303c1.069,0.41,2.866,1.311,2.866,2.701c0,2.627-4.815,7.648-12.366,7.648
			C313.485,473.619,308.67,468.597,308.67,465.97z"/>
	</g>
</g>
<ellipse fill="#333333" cx="321.037" cy="87.404" rx="61.334" ry="31.667"/>
<ellipse fill="#383838" cx="321.037" cy="95.404" rx="41.502" ry="21.428"/>
<g>
	<polygon fill="none" points="314.39,93.41 317.656,87.75 320.925,82.09 324.192,87.75 327.46,93.41 320.925,93.41 	"/>
	<circle fill="#262626" cx="320.925" cy="82.09" r="1.579"/>
	<circle fill="#262626" cx="324.193" cy="87.75" r="1.579"/>
	<circle fill="#262626" cx="327.685" cy="93.453" r="1.579"/>
	<circle fill="#262626" cx="320.925" cy="93.41" r="1.579"/>
	<circle fill="#262626" cx="314.39" cy="93.41" r="1.579"/>
	<circle fill="#262626" cx="317.656" cy="87.75" r="1.579"/>
</g>
<path fill="#383838" d="M371.447,198.426c0,1.957-0.793,3.729-2.073,5.011c-1.283,1.282-48.336,6.076-48.336,6.076
	s-47.054-4.793-48.334-6.076c-1.283-1.282-2.076-3.054-2.076-5.011v-4.142v-4.142c0-1.957,0.793-3.729,2.076-5.011
	c1.28-1.283,48.334-5.076,48.334-5.076s47.053,3.793,48.336,5.076c1.28,1.282,2.073,3.054,2.073,5.011v4.142V198.426
	L371.447,198.426z"/>
</svg>
