<?xml version="1.0" encoding="utf-8"?>
<!-- Generator: Adobe Illustrator 12.0.0, SVG Export Plug-In . SVG Version: 6.00 Build 51448)  -->
<!DOCTYPE svg PUBLIC "-//W3C//DTD SVG 1.1//EN" "http://www.w3.org/Graphics/SVG/1.1/DTD/svg11.dtd" [
	<!ENTITY ns_svg "http://www.w3.org/2000/svg">
	<!ENTITY ns_xlink "http://www.w3.org/1999/xlink">
]>
<svg  version="1.1" id="Ebene_1" xmlns="&ns_svg;" xmlns:xlink="&ns_xlink;" width="873.999" height="328.036"
	 viewBox="0 0 873.999 328.036" overflow="visible" enable-background="new 0 0 873.999 328.036" xml:space="preserve">
<rect x="8.695" y="276.917" fill="#232323" width="354.667" height="36.667"/>
<polygon fill="#141414" points="343.948,130.621 358.503,147.631 358.503,132.249 349.867,127.392 "/>
<radialGradient id="XMLID_22_" cx="-142.6084" cy="98.894" r="154.3684" gradientTransform="matrix(-1 0 0 1 636.3906 0)" gradientUnits="userSpaceOnUse">
	<stop  offset="0" style="stop-color:#343233"/>
	<stop  offset="1" style="stop-color:#3C3B3B"/>
</radialGradient>
<polygon fill="url(#XMLID_22_)" points="755.607,102.646 776.999,93.146 802.499,93.146 766.694,106.642 760.499,106.642 
	746.611,106.642 525.499,106.642 525.499,102.646 "/>
<radialGradient id="XMLID_23_" cx="-133.5439" cy="169.1611" r="208.709" gradientTransform="matrix(-1 0 0 1 636.3906 0)" gradientUnits="userSpaceOnUse">
	<stop  offset="0" style="stop-color:#686868"/>
	<stop  offset="1" style="stop-color:#575657"/>
</radialGradient>
<rect x="522.574" y="106.642" fill="url(#XMLID_23_)" width="244.12" height="192.775"/>
<radialGradient id="XMLID_24_" cx="-190.4346" cy="226.4766" r="83.4166" fx="-224.8372" fy="302.4686" gradientTransform="matrix(-1 0 0 1 636.3906 0)" gradientUnits="userSpaceOnUse">
	<stop  offset="0" style="stop-color:#686868"/>
	<stop  offset="1" style="stop-color:#575657"/>
</radialGradient>
<polygon fill="url(#XMLID_24_)" points="766.694,106.642 831.327,79.686 852.538,79.686 852.538,106.642 790.466,126.769 
	790.754,270.604 852.538,275.224 852.538,299.417 772.389,299.417 766.603,298.446 "/>
<linearGradient id="XMLID_25_" gradientUnits="userSpaceOnUse" x1="-172.9463" y1="77.6465" x2="-172.9463" y2="125.1569" gradientTransform="matrix(-1 0 0 1 636.3906 0)">
	<stop  offset="0" style="stop-color:#686868"/>
	<stop  offset="1" style="stop-color:#141213"/>
</linearGradient>
<polygon fill="url(#XMLID_25_)" points="819.52,122.079 808.885,122.079 808.885,108.072 799.154,98.341 799.154,84.857 
	819.52,84.61 "/>
<radialGradient id="XMLID_26_" cx="-174.6182" cy="123.0776" r="6.059" gradientTransform="matrix(-1 0 0 1 636.3906 0)" gradientUnits="userSpaceOnUse">
	<stop  offset="0" style="stop-color:#686868"/>
	<stop  offset="1" style="stop-color:#575657"/>
</radialGradient>
<polygon fill="url(#XMLID_26_)" points="819.52,122.079 813.257,124.077 802.499,124.077 808.885,122.079 "/>
<radialGradient id="XMLID_27_" cx="-169.3008" cy="116.0747" r="6.0924" gradientTransform="matrix(-1 0 0 1 636.3906 0)" gradientUnits="userSpaceOnUse">
	<stop  offset="0" style="stop-color:#343233"/>
	<stop  offset="1" style="stop-color:#3C3B3B"/>
</radialGradient>
<polygon fill="url(#XMLID_27_)" points="802.499,124.077 802.499,110.409 808.885,108.072 808.885,122.079 "/>
<linearGradient id="XMLID_28_" gradientUnits="userSpaceOnUse" x1="-25.9551" y1="118.0981" x2="-25.9551" y2="110.716" gradientTransform="matrix(-1 0 0 1 636.3906 0)">
	<stop  offset="0" style="stop-color:#0B0B0B"/>
	<stop  offset="0.2637" style="stop-color:#7F7F7F"/>
	<stop  offset="0.3956" style="stop-color:#8E8E8E"/>
	<stop  offset="0.5421" style="stop-color:#636363"/>
	<stop  offset="0.6264" style="stop-color:#5F5F5F"/>
	<stop  offset="0.7179" style="stop-color:#EAEAEA"/>
	<stop  offset="0.7912" style="stop-color:#FFFFFF"/>
	<stop  offset="1" style="stop-color:#000000"/>
</linearGradient>
<rect x="519.999" y="110.646" fill="url(#XMLID_28_)" width="284.693" height="7.5"/>
<linearGradient id="XMLID_29_" gradientUnits="userSpaceOnUse" x1="-168.3008" y1="118.0981" x2="-168.3008" y2="110.716" gradientTransform="matrix(-1 0 0 1 636.3906 0)">
	<stop  offset="0" style="stop-color:#0B0B0B"/>
	<stop  offset="0.2637" style="stop-color:#7F7F7F"/>
	<stop  offset="0.3956" style="stop-color:#8E8E8E"/>
	<stop  offset="0.5421" style="stop-color:#636363"/>
	<stop  offset="0.6264" style="stop-color:#5F5F5F"/>
	<stop  offset="0.7179" style="stop-color:#EAEAEA"/>
	<stop  offset="0.7912" style="stop-color:#FFFFFF"/>
	<stop  offset="1" style="stop-color:#000000"/>
</linearGradient>
<ellipse fill="url(#XMLID_29_)" cx="804.692" cy="114.396" rx="2.243" ry="3.75"/>
<polygon fill="#3A3839" points="802.499,110.409 792.868,100.777 799.154,98.341 808.885,108.072 "/>
<radialGradient id="XMLID_30_" cx="-159.668" cy="96.8369" r="3.5851" gradientTransform="matrix(-1 0 0 1 636.3906 0)" gradientUnits="userSpaceOnUse">
	<stop  offset="0" style="stop-color:#343233"/>
	<stop  offset="1" style="stop-color:#3C3B3B"/>
</radialGradient>
<polygon fill="url(#XMLID_30_)" points="792.868,100.777 792.868,95.726 799.249,92.896 799.154,98.341 "/>
<linearGradient id="XMLID_31_" gradientUnits="userSpaceOnUse" x1="673.6377" y1="118.9438" x2="717.1006" y2="118.9438">
	<stop  offset="0" style="stop-color:#424242"/>
	<stop  offset="1" style="stop-color:#000000"/>
</linearGradient>
<polygon fill="url(#XMLID_31_)" points="717.101,116.074 704.549,121.813 673.638,121.813 684.739,116.074 "/>
<linearGradient id="XMLID_32_" gradientUnits="userSpaceOnUse" x1="673.6377" y1="102.7637" x2="684.7393" y2="102.7637">
	<stop  offset="0" style="stop-color:#424242"/>
	<stop  offset="1" style="stop-color:#000000"/>
</linearGradient>
<polygon fill="url(#XMLID_32_)" points="684.739,116.074 684.739,83.714 673.638,90.903 673.638,121.813 "/>
<linearGradient id="XMLID_33_" gradientUnits="userSpaceOnUse" x1="-80.71" y1="99.894" x2="-48.3486" y2="99.894" gradientTransform="matrix(-1 0 0 1 636.3906 0)">
	<stop  offset="0" style="stop-color:#424242"/>
	<stop  offset="1" style="stop-color:#000000"/>
</linearGradient>
<rect x="684.739" y="83.714" fill="url(#XMLID_33_)" width="32.361" height="32.36"/>
<g>
	<circle fill="none" stroke="#E7E3E5" cx="700.919" cy="99.894" r="12.577"/>
	<circle fill="none" stroke="#E7E3E5" cx="700.919" cy="99.894" r="6.577"/>
	<circle fill="#E7E3E5" cx="713.496" cy="112.471" r="2.406"/>
	<circle fill="#E7E3E5" cx="713.497" cy="87.317" r="2.406"/>
	<circle fill="#E7E3E5" cx="688.342" cy="87.317" r="2.406"/>
	<circle fill="#E7E3E5" cx="688.342" cy="112.471" r="2.406"/>
	<polyline fill="none" stroke="#E7E3E5" stroke-miterlimit="10" points="713.497,87.317 703.628,97.186 698.211,97.186 
		688.343,87.317 	"/>
	<polyline fill="none" stroke="#E7E3E5" stroke-miterlimit="10" points="688.342,112.471 698.211,102.603 703.628,102.603 
		713.496,112.471 	"/>
</g>
<path fill-rule="evenodd" clip-rule="evenodd" fill="#FFFFFF" d="M858.999,61.036c4.582,5.417,9.582,10.417,15,15c0-5,0-10,0-15
	C868.999,61.036,863.999,61.036,858.999,61.036z"/>
<path fill-rule="evenodd" clip-rule="evenodd" fill="#FFFFFF" d="M517.999,61.036c-5,0-10,0-15,0c0,5,0,10,0,15
	C508.416,71.454,513.416,66.454,517.999,61.036z"/>
<path fill-rule="evenodd" clip-rule="evenodd" fill="#FFFFFF" d="M873.999,303.036c-5.418,4.584-10.418,9.584-15,15c5,0,10,0,15,0
	C873.999,313.036,873.999,308.036,873.999,303.036z"/>
<path fill-rule="evenodd" clip-rule="evenodd" fill="#FFFFFF" d="M502.999,303.036c0,5,0,10,0,15c5,0,10,0,15,0
	C513.416,312.62,508.416,307.62,502.999,303.036z"/>
<rect x="540.656" y="226.779" opacity="0.41" fill="#047391" width="270.039" height="10.472"/>
<radialGradient id="XMLID_34_" cx="688.499" cy="189.5361" r="159.5658" gradientUnits="userSpaceOnUse">
	<stop  offset="0" style="stop-color:#686868"/>
	<stop  offset="1" style="stop-color:#141213"/>
</radialGradient>
<path fill-rule="evenodd" clip-rule="evenodd" fill="url(#XMLID_34_)" d="M861.999,61.036h-347l-12,12v233l12,12h347l12-12v-233
	L861.999,61.036z M834.514,283.495c-1.674,1.674-2.274,2.273-3.948,3.947h-86.203l-75.475-75.476H542.484V95.579
	c1.674-1.674,2.274-2.274,3.948-3.948h284.133c1.674,1.674,2.274,2.274,3.948,3.948V283.495z"/>
<linearGradient id="XMLID_35_" gradientUnits="userSpaceOnUse" x1="486.2637" y1="189.5361" x2="509.998" y2="189.5361">
	<stop  offset="0" style="stop-color:#686868"/>
	<stop  offset="1" style="stop-color:#141213"/>
</linearGradient>
<polygon fill="url(#XMLID_35_)" points="502.999,306.036 489.742,293.586 490.037,106.642 502.999,73.036 "/>
<polygon fill-rule="evenodd" clip-rule="evenodd" fill="#3F3F3F" points="663.281,265.494 547.484,265.494 542.484,260.494 
	542.484,229.779 547.484,224.779 663.281,224.779 "/>
<path fill-rule="evenodd" clip-rule="evenodd" fill="#303030" d="M661.281,226.779c0,3.43,0,33.286,0,36.715
	c-3.835,0-111.363,0-112.969,0c-0.792-0.792-3.036-3.037-3.828-3.829c0-1.525,0-27.533,0-29.058
	c0.792-0.792,3.036-3.037,3.828-3.829C549.918,226.779,657.446,226.779,661.281,226.779z"/>
<rect x="586.293" y="230.066" fill-rule="evenodd" clip-rule="evenodd" fill="#0099AD" stroke="#6D6D6D" width="71.701" height="30.142"/>
<polygon fill="#141414" points="16.152,141.251 79.019,156.644 87.97,153.257 87.97,148.12 26.152,131.251 15.605,130.78 "/>
<path d="M367.713,286.49c0,4.707-3.816,8.523-8.523,8.523H87.542c-4.708,0-8.524-3.816-8.524-8.523V156.644
	c0-4.708,3.816-8.524,8.524-8.524h271.647c4.707,0,8.523,3.816,8.523,8.524V286.49z"/>
<polygon fill="#141414" points="359.189,148.12 344.848,131.251 26.152,131.251 87.542,148.12 "/>
<g>
	<g>
		<path fill="#FFFDA9" d="M343.923,133.251c0.438,0.515,2.313,2.721,4.509,5.304c1.098,1.292,2.276,2.677,3.395,3.993
			c1.119,1.316,2.178,2.561,3.038,3.573c-4.185,0-70.815,0-136.466,0c-65.65,0-130.321,0-130.586,0
			c-0.198-0.054-7.722-2.122-17.29-4.751c-4.784-1.314-10.078-2.77-15.222-4.183c-5.144-1.414-10.138-2.786-14.321-3.936
			c6.719,0,28.903,0,58.427,0s66.388,0,102.466,0C274.029,133.251,343.047,133.251,343.923,133.251z"/>
	</g>
	<path fill="#FFFDAA" d="M42.094,133.309c6.726-0.001,28.75-0.003,58.042-0.004c29.335-0.001,65.945-0.002,101.789-0.002
		c71.635,0,140.137,0.002,141.204,0.006c0.635,0.513,2.612,2.698,4.783,5.257c1.085,1.281,2.166,2.67,3.184,3.958
		c1.042,1.319,2.057,2.534,2.849,3.535c-4.337,0.004-70.48,0.006-135.683,0.006s-129.409-0.002-129.872-0.006
		c-0.396-0.057-7.959-2.106-17.417-4.71c-4.729-1.303-9.901-2.745-14.88-4.145C51.053,135.803,46.169,134.446,42.094,133.309z"/>
	<path fill="#FFFDAB" d="M43.21,133.366c6.731-0.003,28.598-0.005,57.656-0.007c29.146-0.003,65.502-0.004,101.111-0.004
		c71.113,0,139.1,0.004,140.358,0.012c0.831,0.511,2.912,2.675,5.057,5.21c1.072,1.27,2.056,2.661,2.974,3.922
		c0.961,1.321,1.936,2.507,2.66,3.498c-4.491,0.007-70.146,0.012-134.902,0.012c-64.755,0-128.496-0.004-129.157-0.012
		c-0.596-0.061-8.196-2.091-17.543-4.67c-4.674-1.292-9.719-2.738-14.538-4.107C51.955,135.817,47.177,134.491,43.21,133.366z"/>
	<path fill="#FFFDAC" d="M44.326,133.424c6.737-0.004,28.445-0.008,57.27-0.011c28.957-0.004,65.06-0.006,100.434-0.006
		c70.59,0,138.062,0.007,139.511,0.018c1.027,0.508,3.211,2.653,5.331,5.164c1.06,1.259,1.941,2.65,2.763,3.887
		c0.878,1.323,1.814,2.48,2.471,3.46c-4.644,0.011-69.811,0.018-134.119,0.018s-127.583-0.007-128.442-0.018
		c-0.795-0.063-8.433-2.075-17.671-4.63c-4.619-1.281-9.54-2.723-14.196-4.07C52.854,135.838,48.184,134.537,44.326,133.424z"/>
	<path fill="#FFFDAD" d="M45.441,133.481c6.744-0.006,28.293-0.011,56.885-0.015c28.768-0.005,64.617-0.008,99.756-0.008
		c70.068,0,137.024,0.009,138.665,0.023c1.224,0.506,3.511,2.63,5.604,5.117c1.048,1.248,1.825,2.637,2.553,3.852
		c0.792,1.325,1.693,2.453,2.281,3.422c-4.797,0.015-69.476,0.024-133.336,0.024s-126.67-0.009-127.728-0.024
		c-0.994-0.066-8.67-2.059-17.798-4.589c-4.563-1.27-9.359-2.707-13.854-4.033C53.753,135.859,49.191,134.583,45.441,133.481z"/>
	<path fill="#FFFDAE" d="M46.557,133.539c6.75-0.007,28.141-0.014,56.5-0.019c28.579-0.007,64.174-0.011,99.079-0.011
		c69.546,0,135.987,0.011,137.819,0.029c1.419,0.504,3.809,2.607,5.878,5.07c1.034,1.237,1.707,2.62,2.342,3.817
		c0.702,1.325,1.572,2.426,2.093,3.385c-4.95,0.018-69.142,0.029-132.555,0.029c-63.413,0-125.757-0.011-127.013-0.029
		c-1.193-0.069-8.907-2.043-17.924-4.549c-4.509-1.258-9.18-2.692-13.512-3.995C54.653,135.88,50.199,134.628,46.557,133.539z"/>
	<path fill="#FFFDAF" d="M47.672,133.597c6.756-0.009,27.988-0.017,56.114-0.022c28.39-0.008,63.731-0.013,98.401-0.013
		c69.023,0,134.949,0.013,136.973,0.035c1.615,0.501,4.107,2.585,6.151,5.023c1.022,1.226,1.584,2.599,2.131,3.782
		c0.611,1.323,1.452,2.399,1.904,3.347c-5.104,0.022-68.807,0.035-131.772,0.035c-62.965,0-124.844-0.013-126.299-0.035
		c-1.392-0.072-9.144-2.028-18.051-4.509c-4.454-1.247-9-2.677-13.169-3.958C55.553,135.9,51.206,134.673,47.672,133.597z"/>
	<path fill="#FFFDB0" d="M48.788,133.654c6.762-0.011,27.836-0.02,55.729-0.026c28.201-0.009,63.289-0.015,97.724-0.015
		c68.501,0,133.911,0.016,136.126,0.041c1.812,0.499,4.407,2.563,6.426,4.977c1.01,1.215,1.46,2.573,1.92,3.747
		c0.517,1.318,1.331,2.372,1.715,3.31c-5.256,0.025-68.472,0.042-130.99,0.042c-62.518,0-123.931-0.016-125.584-0.042
		c-1.59-0.075-9.381-2.012-18.178-4.468c-4.399-1.236-8.818-2.662-12.828-3.92C56.454,135.919,52.213,134.719,48.788,133.654z"/>
	<path fill="#FFFDB1" d="M49.903,133.712c6.768-0.012,27.684-0.022,55.343-0.03c28.012-0.011,62.846-0.018,97.046-0.018
		c67.979,0,132.875,0.018,135.28,0.047c2.008,0.497,4.711,2.536,6.7,4.93c0.999,1.202,1.563,2.492,1.709,3.711
		c0.663,1.205,1.21,2.345,1.526,3.272c-5.41,0.029-68.138,0.047-130.208,0.047c-62.07,0-123.019-0.018-124.869-0.047
		c-1.79-0.078-9.618-1.996-18.306-4.428c-4.344-1.225-8.638-2.647-12.485-3.883C57.355,135.939,53.221,134.764,49.903,133.712z"/>
	<path fill="#FFFDB2" d="M51.019,133.77c6.774-0.014,27.531-0.025,54.958-0.034c27.823-0.012,62.403-0.02,96.369-0.02
		c67.457,0,131.836,0.021,134.433,0.053c2.204,0.495,5.011,2.513,6.974,4.883c0.987,1.192,1.475,2.469,1.499,3.677
		c0.605,1.191,1.089,2.318,1.337,3.234c-5.563,0.033-67.803,0.053-129.426,0.053s-122.106-0.02-124.155-0.053
		c-1.989-0.082-9.855-1.98-18.433-4.388c-4.289-1.213-8.457-2.633-12.143-3.845C58.256,135.957,54.228,134.81,51.019,133.77z"/>
	<path fill="#FFFDB3" d="M52.134,133.827c6.78-0.015,27.379-0.028,54.572-0.038c27.634-0.014,61.96-0.021,95.691-0.021
		c66.934,0,130.798,0.022,133.586,0.059c2.4,0.492,5.311,2.489,7.248,4.836c0.974,1.18,1.386,2.446,1.288,3.641
		c0.549,1.177,0.968,2.291,1.147,3.197c-5.716,0.037-67.468,0.059-128.644,0.059c-61.175,0-121.193-0.022-123.44-0.059
		c-2.188-0.084-10.092-1.965-18.56-4.347c-4.234-1.202-8.275-2.619-11.801-3.808C59.157,135.975,55.235,134.855,52.134,133.827z"/>
	<path fill="#FFFDB4" d="M53.25,133.885c6.786-0.017,27.227-0.031,54.187-0.041c27.445-0.015,61.518-0.024,95.014-0.024
		c66.412,0,129.762,0.025,132.74,0.065c2.597,0.49,5.61,2.467,7.521,4.79c0.962,1.169,1.297,2.423,1.078,3.606
		c0.491,1.164,0.847,2.264,0.959,3.159c-5.869,0.04-67.134,0.065-127.862,0.065s-120.28-0.025-122.726-0.065
		c-2.386-0.087-10.329-1.949-18.687-4.307c-4.179-1.191-8.093-2.604-11.459-3.771C60.06,135.991,56.243,134.901,53.25,133.885z"/>
	<path fill="#FFFDB5" d="M54.366,133.942c6.792-0.018,27.074-0.033,53.801-0.045c27.256-0.017,61.075-0.026,94.336-0.026
		c65.89,0,128.724,0.027,131.894,0.071c2.793,0.488,5.91,2.443,7.796,4.743c0.95,1.158,1.207,2.4,0.867,3.571
		c0.435,1.15,0.726,2.237,0.77,3.122c-6.022,0.043-66.799,0.071-127.08,0.071c-60.28,0-119.367-0.027-122.011-0.071
		c-2.585-0.09-10.565-1.934-18.813-4.267c-4.124-1.18-7.912-2.59-11.117-3.733C60.962,136.007,57.25,134.946,54.366,133.942z"/>
	<path fill="#FFFDB6" d="M55.481,134c6.799-0.02,26.922-0.036,53.416-0.049c27.067-0.018,60.632-0.028,93.659-0.028
		c65.367,0,127.686,0.029,131.047,0.077c2.989,0.485,6.21,2.421,8.069,4.696c0.938,1.147,1.119,2.376,0.657,3.536
		c0.377,1.136,0.604,2.21,0.58,3.084c-6.175,0.047-66.464,0.077-126.297,0.077c-59.833,0-118.455-0.029-121.296-0.077
		c-2.785-0.093-10.803-1.917-18.94-4.226c-4.069-1.168-7.729-2.576-10.775-3.695C61.865,136.022,58.257,134.992,55.481,134z"/>
	<path fill="#FFFDB7" d="M56.597,134.058c6.805-0.021,26.77-0.039,53.03-0.053c26.878-0.019,60.189-0.03,92.981-0.03
		c64.845,0,126.649,0.032,130.201,0.083c3.186,0.483,6.51,2.397,8.344,4.649c0.925,1.136,1.029,2.353,0.446,3.5
		c0.32,1.122,0.483,2.183,0.392,3.046c-6.329,0.051-66.129,0.083-125.515,0.083c-59.385,0-117.542-0.031-120.582-0.083
		c-2.983-0.096-11.04-1.902-19.067-4.186c-4.014-1.157-7.545-2.563-10.433-3.658C62.77,136.036,59.265,135.037,56.597,134.058z"/>
	<path fill="#FFFDB8" d="M57.712,134.115c6.811-0.022,26.617-0.042,52.645-0.056c26.689-0.021,59.747-0.032,92.304-0.032
		c64.323,0,125.611,0.034,129.355,0.088c3.381,0.481,6.808,2.375,8.616,4.603c0.913,1.125,0.94,2.33,0.236,3.465
		c0.263,1.108,0.362,2.156,0.202,3.009c-6.481,0.055-65.794,0.088-124.733,0.088c-58.938,0-116.628-0.034-119.867-0.088
		c-3.182-0.1-11.276-1.886-19.194-4.146c-3.959-1.146-7.361-2.549-10.09-3.621C63.674,136.047,60.272,135.083,57.712,134.115z"/>
	<path fill="#FFFDB9" d="M58.828,134.173c6.817-0.024,26.465-0.044,52.259-0.06c26.5-0.022,59.304-0.034,91.626-0.034
		c63.801,0,124.573,0.036,128.509,0.094c3.577,0.479,7.108,2.351,8.891,4.556c0.9,1.113,0.852,2.307,0.024,3.431
		c0.207,1.094,0.242,2.129,0.014,2.971c-6.635,0.058-65.459,0.094-123.95,0.094c-58.49,0-115.716-0.036-119.152-0.094
		c-3.381-0.103-11.518-1.854-19.321-4.105c-3.906-1.126-7.177-2.535-9.749-3.583C64.581,136.058,61.279,135.128,58.828,134.173z"/>
	<path fill="#FFFDBA" d="M59.943,134.23c6.823-0.026,26.312-0.047,51.874-0.064c26.312-0.023,58.861-0.036,90.949-0.036
		c63.278,0,123.536,0.038,127.662,0.1c3.773,0.476,7.408,2.329,9.165,4.509c0.888,1.102,0.762,2.284-0.187,3.395
		c0.149,1.08,0.121,2.102-0.176,2.934c-6.788,0.062-65.125,0.1-123.167,0.1s-114.803-0.038-118.438-0.1
		c-3.58-0.105-11.755-1.837-19.448-4.064c-3.851-1.115-6.991-2.521-9.406-3.545C65.488,136.067,62.287,135.174,59.943,134.23z"/>
	<path fill="#FFFDBB" d="M61.059,134.288c6.829-0.027,26.16-0.05,51.488-0.067c26.123-0.025,58.418-0.039,90.271-0.039
		c62.756,0,122.498,0.041,126.815,0.106c3.97,0.474,7.707,2.306,9.438,4.462c0.876,1.091,0.673,2.261-0.396,3.36
		c0.093,1.066,0,2.075-0.364,2.896c-6.941,0.065-64.791,0.106-122.386,0.106c-57.595,0-113.89-0.041-117.723-0.106
		c-3.779-0.109-11.993-1.821-19.576-4.024c-3.796-1.103-6.805-2.508-9.064-3.508C66.397,136.074,63.294,135.219,61.059,134.288z"/>
	<path fill="#FFFDBC" d="M62.174,134.346c6.835-0.029,26.007-0.053,51.103-0.071c25.934-0.026,57.976-0.041,89.594-0.041
		c62.234,0,121.46,0.042,125.969,0.112c4.166,0.472,8.008,2.282,9.713,4.416c0.863,1.08,0.584,2.238-0.607,3.325
		c0.035,1.053-0.121,2.048-0.554,2.859c-7.095,0.069-64.456,0.112-121.604,0.112s-112.978-0.042-117.008-0.112
		c-3.979-0.111-12.23-1.804-19.702-3.984c-3.742-1.092-6.617-2.495-8.722-3.471C67.308,136.078,64.301,135.265,62.174,134.346z"/>
	<path fill="#FFFDBD" d="M63.29,134.403c6.841-0.03,25.855-0.056,50.717-0.075c25.744-0.027,57.533-0.042,88.916-0.042
		c61.711,0,120.423,0.045,125.123,0.118c4.362,0.469,8.307,2.26,9.986,4.369c0.852,1.069,0.495,2.214-0.817,3.29
		c-0.022,1.039-0.242,2.021-0.743,2.821c-7.247,0.073-64.121,0.118-120.821,0.118c-56.7,0-112.064-0.045-116.293-0.118
		c-4.177-0.114-12.467-1.788-19.829-3.943c-3.687-1.08-6.428-2.481-8.38-3.433C68.222,136.08,65.309,135.31,63.29,134.403z"/>
	<path fill="#FFFDBE" d="M64.406,134.461c6.847-0.032,25.702-0.058,50.332-0.079c25.555-0.029,57.09-0.045,88.239-0.045
		c61.189,0,119.385,0.047,124.276,0.124c4.559,0.467,8.606,2.237,10.261,4.322c0.839,1.058,0.405,2.191-1.028,3.254
		c-0.079,1.025-0.363,1.994-0.932,2.784c-7.401,0.076-63.787,0.124-120.04,0.124c-56.252,0-111.152-0.047-115.579-0.124
		c-4.376-0.118-12.705-1.771-19.956-3.903c-3.632-1.068-6.237-2.467-8.038-3.396C69.138,136.078,66.316,135.356,64.406,134.461z"/>
	<path fill="#FFFEBF" d="M65.521,134.519c6.854-0.033,25.55-0.061,49.946-0.083c25.366-0.03,56.647-0.047,87.561-0.047
		c60.667,0,118.348,0.05,123.43,0.13c4.755,0.465,8.906,2.213,10.534,4.275c0.826,1.047,0.317,2.168-1.238,3.219
		c-0.137,1.011-0.484,1.967-1.121,2.746c-7.554,0.08-63.452,0.129-119.257,0.129s-110.239-0.049-114.865-0.129
		c-4.575-0.121-12.942-1.753-20.083-3.862c-3.578-1.057-6.043-2.453-7.696-3.358C70.058,136.073,67.324,135.401,65.521,134.519z"/>
	<path fill="#FFFEC0" d="M66.637,134.576c6.859-0.035,25.398-0.064,49.561-0.086c25.178-0.031,56.205-0.049,86.884-0.049
		c60.145,0,117.311,0.052,122.583,0.136c4.951,0.462,9.206,2.19,10.809,4.229c0.814,1.036,0.228,2.145-1.449,3.185
		c-0.193,0.997-0.605,1.939-1.311,2.708c-7.707,0.084-63.117,0.136-118.475,0.136c-55.357,0-109.326-0.052-114.149-0.136
		c-4.774-0.124-13.179-1.736-20.21-3.822c-3.522-1.045-5.848-2.438-7.354-3.321C70.983,136.063,68.331,135.447,66.637,134.576z"/>
	<path fill="#FFFEC1" d="M67.752,134.634c6.865-0.036,25.245-0.067,49.175-0.09c24.989-0.033,55.762-0.052,86.207-0.052
		c59.622,0,116.272,0.054,121.736,0.142c5.147,0.46,9.507,2.167,11.083,4.182c0.801,1.024,0.138,2.122-1.66,3.149
		c-0.251,0.983-0.727,1.913-1.499,2.67c-7.86,0.087-62.782,0.142-117.693,0.142c-54.91,0-108.413-0.054-113.435-0.142
		c-4.973-0.126-13.417-1.72-20.337-3.781c-3.468-1.033-5.829-2.187-7.011-3.284C71.676,136.515,69.338,135.492,67.752,134.634z"/>
	<path fill="#FFFEC2" d="M68.868,134.691c6.872-0.038,25.093-0.069,48.79-0.094c24.8-0.034,55.319-0.054,85.529-0.054
		c59.1,0,115.235,0.056,120.891,0.147c5.343,0.458,9.805,2.145,11.355,4.135c0.789,1.014,0.05,2.099-1.871,3.114
		c-0.307,0.969-0.847,1.886-1.688,2.633c-8.014,0.091-62.447,0.147-116.91,0.147s-107.5-0.056-112.721-0.147
		c-5.172-0.13-13.654-1.703-20.464-3.741c-3.413-1.021-5.652-2.162-6.669-3.246C72.572,136.546,70.346,135.538,68.868,134.691z"/>
	<path fill="#FFFEC3" d="M69.983,134.749c6.878-0.039,24.94-0.072,48.404-0.098c24.61-0.036,54.876-0.056,84.851-0.056
		c58.577,0,114.198,0.059,120.044,0.153c5.539,0.456,10.105,2.122,11.63,4.088c0.777,1.002-0.04,2.076-2.082,3.079
		c-0.364,0.956-0.968,1.859-1.877,2.596c-8.166,0.095-62.112,0.153-116.128,0.153c-54.015,0-106.587-0.059-112.006-0.153
		c-5.371-0.132-13.891-1.687-20.591-3.701c-3.358-1.01-5.476-2.138-6.328-3.208C73.469,136.577,71.353,135.583,69.983,134.749z"/>
	<path fill="#FFFEC4" d="M71.099,134.807c6.884-0.041,24.788-0.075,48.019-0.101c24.421-0.037,54.434-0.058,84.174-0.058
		c58.055,0,113.16,0.061,119.198,0.159c5.735,0.454,10.405,2.099,11.903,4.042c0.765,0.992-0.128,2.053-2.292,3.044
		c-0.421,0.941-1.089,1.832-2.065,2.558c-8.32,0.099-61.778,0.159-115.346,0.159s-105.675-0.061-111.292-0.159
		c-5.57-0.135-14.128-1.669-20.718-3.66c-3.304-0.998-5.298-2.114-5.985-3.171C74.366,136.608,72.36,135.629,71.099,134.807z"/>
	<path fill="#FFFEC5" d="M72.214,134.864c6.89-0.042,24.636-0.078,47.633-0.105c24.232-0.039,53.991-0.06,83.496-0.06
		c57.533,0,112.123,0.063,118.352,0.165c5.932,0.451,10.704,2.076,12.178,3.995c0.752,0.98-0.218,2.029-2.503,3.008
		c-0.479,0.928-1.21,1.805-2.255,2.521c-8.473,0.102-61.443,0.165-114.564,0.165c-53.12,0-104.762-0.063-110.576-0.165
		c-5.769-0.139-14.366-1.653-20.845-3.62c-3.249-0.986-5.121-2.089-5.643-3.134C75.262,136.639,73.368,135.674,72.214,134.864z"/>
	<path fill="#FFFEC6" d="M73.33,134.922c6.896-0.044,24.483-0.081,47.248-0.109c24.044-0.04,53.548-0.062,82.819-0.062
		c57.01,0,111.085,0.065,117.505,0.171c6.128,0.449,11.004,2.053,12.451,3.948c0.74,0.97-0.307,2.006-2.713,2.973
		c-0.535,0.914-1.331,1.778-2.444,2.483c-8.626,0.105-61.108,0.171-113.781,0.171c-52.672,0-103.849-0.065-109.862-0.171
		c-5.968-0.142-14.603-1.636-20.972-3.58c-3.193-0.974-4.944-2.065-5.301-3.096C76.159,136.669,74.375,135.72,73.33,134.922z"/>
	<path fill="#FFFEC7" d="M74.446,134.979c6.902-0.045,24.331-0.083,46.862-0.112c23.855-0.041,53.105-0.064,82.142-0.064
		c56.488,0,110.047,0.067,116.658,0.177c6.324,0.447,11.305,2.029,12.726,3.901c0.728,0.958-0.396,1.983-2.924,2.938
		c-0.593,0.9-1.452,1.75-2.633,2.445c-8.779,0.109-60.774,0.177-113,0.177s-102.937-0.067-109.147-0.177
		c-6.167-0.145-14.84-1.619-21.099-3.539c-3.139-0.963-4.767-2.041-4.959-3.059C77.056,136.701,75.382,135.765,74.446,134.979z"/>
	<path fill="#FFFEC8" d="M75.561,135.037c6.908-0.047,24.179-0.086,46.477-0.116c23.666-0.042,52.663-0.066,81.463-0.066
		c55.966,0,109.01,0.07,115.812,0.183c6.521,0.444,11.604,2.007,13,3.855c0.715,0.947-0.485,1.959-3.135,2.903
		c-0.649,0.886-1.573,1.724-2.822,2.408c-8.932,0.113-60.439,0.183-112.217,0.183c-51.777,0-102.023-0.07-108.433-0.183
		c-6.366-0.148-15.078-1.603-21.226-3.499c-3.084-0.951-4.59-2.016-4.617-3.021C77.953,136.731,76.39,135.811,75.561,135.037z"/>
	<path fill="#FFFEC9" d="M76.677,135.095c6.915-0.048,24.026-0.089,46.091-0.12c23.477-0.043,52.22-0.068,80.786-0.068
		c55.443,0,107.972,0.072,114.965,0.188c6.717,0.442,11.903,1.984,13.273,3.808c0.703,0.936-0.574,1.937-3.345,2.868
		c-0.707,0.873-1.694,1.697-3.012,2.37c-9.085,0.117-60.104,0.188-111.435,0.188s-101.11-0.072-107.718-0.188
		c-6.565-0.151-15.315-1.586-21.354-3.458c-3.029-0.939-4.413-1.992-4.274-2.984C78.849,136.762,77.397,135.856,76.677,135.095z"/>
	<path fill="#FFFECA" d="M77.792,135.152c6.92-0.05,23.874-0.092,45.706-0.124c23.288-0.045,51.777-0.071,80.109-0.071
		c54.921,0,106.934,0.074,114.119,0.194c6.913,0.44,12.203,1.96,13.547,3.761c0.69,0.925-0.663,1.914-3.556,2.833
		c-0.764,0.859-1.815,1.67-3.2,2.333c-9.239,0.12-59.77,0.195-110.653,0.195s-100.198-0.075-107.003-0.195
		c-6.764-0.153-15.552-1.569-21.48-3.418c-2.974-0.927-4.236-1.968-3.932-2.946C79.746,136.793,78.404,135.902,77.792,135.152z"/>
	<path fill="#FFFECB" d="M78.908,135.21c6.927-0.051,23.722-0.094,45.32-0.127c23.099-0.046,51.334-0.073,79.431-0.073
		c54.399,0,105.897,0.076,113.273,0.2c7.109,0.438,12.502,1.938,13.821,3.714c0.679,0.914-0.752,1.891-3.766,2.798
		c-0.821,0.844-1.937,1.643-3.39,2.295c-9.392,0.124-59.435,0.2-109.871,0.2c-50.435,0-99.285-0.077-106.289-0.2
		c-6.963-0.157-15.79-1.553-21.607-3.378c-2.92-0.916-4.059-1.943-3.591-2.909C80.643,136.824,79.412,135.947,78.908,135.21z"/>
	<path fill="#FFFECC" d="M80.023,135.268c6.933-0.053,23.569-0.097,44.935-0.131c22.91-0.048,50.892-0.075,78.754-0.075
		c53.876,0,104.859,0.079,112.426,0.206c7.305,0.435,12.802,1.916,14.095,3.668c0.666,0.903-0.842,1.867-3.978,2.762
		c-0.877,0.831-2.057,1.616-3.578,2.257c-9.544,0.127-59.1,0.206-109.088,0.206s-98.372-0.079-105.574-0.206
		c-7.162-0.16-16.027-1.536-21.734-3.337c-2.865-0.904-3.882-1.919-3.249-2.871C81.539,136.855,80.419,135.993,80.023,135.268z"/>
	<path fill="#FFFECD" d="M81.139,135.325c6.938-0.054,23.417-0.1,44.549-0.135c22.721-0.049,50.449-0.077,78.077-0.077
		c53.354,0,103.821,0.081,111.58,0.212c7.501,0.433,13.102,1.893,14.369,3.621c0.653,0.892-0.93,1.844-4.188,2.727
		c-0.935,0.817-2.178,1.589-3.768,2.22c-9.697,0.131-58.765,0.212-108.306,0.212c-49.54,0-97.459-0.081-104.859-0.212
		c-7.36-0.163-16.264-1.52-21.861-3.297c-2.81-0.893-3.705-1.895-2.906-2.834C82.436,136.886,81.426,136.038,81.139,135.325z"/>
	<path fill="#FFFECE" d="M82.254,135.383c6.945-0.056,23.264-0.103,44.164-0.139c22.532-0.051,50.006-0.08,77.398-0.08
		c52.832,0,102.784,0.083,110.733,0.218c7.698,0.431,13.402,1.869,14.643,3.574c0.642,0.881-1.02,1.821-4.398,2.692
		c-0.991,0.803-2.298,1.562-3.956,2.182c-9.851,0.135-58.431,0.218-107.524,0.218c-49.092,0-96.546-0.083-104.145-0.218
		c-7.56-0.166-16.501-1.502-21.988-3.256c-2.755-0.881-3.528-1.871-2.564-2.796C83.333,136.917,82.434,136.083,82.254,135.383z"/>
	<path fill="#FFFECF" d="M83.37,135.44c6.951-0.058,23.112-0.105,43.778-0.143c22.343-0.052,49.563-0.082,76.721-0.082
		c52.31,0,101.747,0.086,109.887,0.224c7.894,0.428,13.7,1.847,14.916,3.527c0.63,0.87-1.108,1.798-4.608,2.657
		c-1.049,0.789-2.419,1.535-4.146,2.145c-10.004,0.138-58.096,0.224-106.741,0.224s-95.634-0.085-103.43-0.224
		c-7.759-0.169-16.739-1.486-22.115-3.216c-2.701-0.869-3.351-1.846-2.222-2.759C84.229,136.948,83.441,136.129,83.37,135.44z"/>
	<path fill="#FFFED0" d="M84.486,135.498c6.957-0.059,22.959-0.108,43.393-0.146c22.154-0.054,49.121-0.084,76.044-0.084
		c51.787,0,100.708,0.088,109.041,0.23c8.091,0.426,14.001,1.823,15.19,3.481c0.616,0.859-1.197,1.775-4.819,2.622
		c-1.106,0.775-2.54,1.508-4.335,2.107c-10.157,0.142-57.761,0.23-105.959,0.23c-48.197,0-94.721-0.088-102.715-0.23
		c-7.958-0.172-16.976-1.469-22.242-3.176c-2.646-0.857-3.173-1.822-1.88-2.721C85.125,136.979,84.448,136.175,84.486,135.498z"/>
	<path fill="#FFFED1" d="M85.601,135.556c6.963-0.061,22.807-0.111,43.007-0.15c21.965-0.055,48.678-0.086,75.366-0.086
		c51.265,0,99.671,0.09,108.194,0.236c8.287,0.424,14.301,1.8,15.465,3.434c0.604,0.848-1.287,1.751-5.03,2.586
		c-1.163,0.762-2.661,1.481-4.524,2.069c-10.31,0.146-57.427,0.236-105.177,0.236s-93.808-0.09-102.001-0.236
		c-8.157-0.174-17.213-1.453-22.369-3.135c-2.591-0.846-2.997-1.797-1.538-2.684C86.022,137.01,85.456,136.22,85.601,135.556z"/>
	<path fill="#FFFED2" d="M86.717,135.613c6.969-0.062,22.654-0.114,42.622-0.154c21.776-0.056,48.235-0.088,74.689-0.088
		c50.743,0,98.634,0.092,107.348,0.242c8.483,0.421,14.601,1.778,15.738,3.387c0.592,0.837-1.57,1.087-5.24,2.552
		c-1.329,0.531-2.782,1.454-4.713,2.032c-10.463,0.149-57.092,0.242-104.395,0.242c-47.302,0-92.895-0.092-101.286-0.242
		c-8.355-0.178-17.45-1.437-22.496-3.095c-2.536-0.834-2.82-1.773-1.196-2.646C86.919,137.041,86.463,136.266,86.717,135.613z"/>
	<path fill="#FFFED3" d="M87.833,135.671c6.975-0.063,22.502-0.117,42.236-0.157c21.587-0.058,47.792-0.09,74.011-0.09
		c50.22,0,97.596,0.095,106.501,0.248c8.68,0.419,14.899,1.755,16.013,3.341c0.579,0.826-1.646,1.079-5.451,2.516
		c-1.378,0.521-2.904,1.427-4.902,1.994c-10.617,0.153-56.758,0.248-103.613,0.248s-91.982-0.095-100.571-0.248
		c-8.555-0.181-17.688-1.419-22.623-3.055c-2.481-0.822-2.643-1.749-0.854-2.609C87.815,137.072,87.47,136.311,87.833,135.671z"/>
	<path fill="#FFFED4" d="M88.948,135.729c6.981-0.065,22.35-0.12,41.851-0.161c21.398-0.059,47.35-0.092,73.333-0.092
		c49.698,0,96.559,0.097,105.655,0.253c8.875,0.417,15.198,1.732,16.286,3.294c0.567,0.815-1.721,1.072-5.661,2.481
		c-1.429,0.511-3.025,1.4-5.091,1.957c-10.77,0.157-56.422,0.253-102.83,0.253s-91.069-0.097-99.857-0.253
		c-8.753-0.184-17.926-1.403-22.75-3.014c-2.427-0.811-2.465-1.725-0.512-2.571C88.712,137.103,88.478,136.356,88.948,135.729z"/>
	<path fill="#FFFED4" d="M90.063,135.786c6.987-0.066,22.197-0.122,41.465-0.165c21.209-0.06,46.907-0.094,72.656-0.094
		c49.176,0,95.521,0.099,104.809,0.259c9.071,0.415,15.499,1.709,16.56,3.247c0.555,0.804-1.799,1.066-5.872,2.446
		c-1.478,0.5-3.146,1.373-5.28,1.919c-10.923,0.16-56.088,0.259-102.048,0.259c-45.959,0-90.156-0.099-99.142-0.259
		c-8.953-0.187-18.163-1.386-22.877-2.974c-2.372-0.799-2.289-1.7-0.169-2.534C89.609,137.134,89.485,136.402,90.063,135.786z"/>
	<path fill="#FFFED5" d="M91.179,135.844c6.994-0.068,22.045-0.125,41.08-0.169c21.02-0.062,46.464-0.096,71.979-0.096
		c48.654,0,94.483,0.101,103.962,0.265c9.268,0.412,15.797,1.687,16.833,3.2c0.543,0.793-1.875,1.059-6.083,2.411
		c-1.528,0.491-3.266,1.346-5.468,1.881c-11.076,0.164-55.753,0.265-101.266,0.265c-45.512,0-89.244-0.101-98.428-0.265
		c-9.151-0.19-18.4-1.369-23.004-2.934c-2.317-0.787-2.111-1.676,0.173-2.497C90.505,137.165,90.492,136.448,91.179,135.844z"/>
	<path fill="#FFFED6" d="M92.294,135.901c7-0.069,21.893-0.128,40.694-0.172c20.831-0.063,46.022-0.099,71.301-0.099
		c48.131,0,93.446,0.104,103.116,0.271c9.464,0.41,16.097,1.664,17.108,3.154c0.53,0.782-1.954,1.052-6.293,2.375
		c-1.579,0.482-3.388,1.319-5.658,1.844c-11.229,0.167-55.418,0.271-100.483,0.271s-88.331-0.104-97.713-0.271
		c-9.35-0.193-18.638-1.353-23.131-2.893c-2.262-0.776-1.934-1.652,0.515-2.459C91.402,137.195,91.5,136.493,92.294,135.901z"/>
	<path fill="#FFFED7" d="M93.41,135.959c7.006-0.071,21.74-0.13,40.309-0.176c20.642-0.064,45.579-0.101,70.624-0.101
		c47.609,0,92.408,0.105,102.269,0.277c9.66,0.408,16.398,1.641,17.382,3.107c0.518,0.771-2.033,1.045-6.505,2.341
		c-1.631,0.472-3.508,1.292-5.847,1.806c-11.382,0.171-55.084,0.277-99.702,0.277c-44.617,0-87.418-0.106-96.998-0.277
		c-9.55-0.196-18.875-1.336-23.258-2.853c-2.208-0.764-1.757-1.627,0.857-2.421C92.299,137.227,92.507,136.539,93.41,135.959z"/>
	<path fill="#FFFED8" d="M94.526,136.017c7.012-0.072,21.587-0.133,39.923-0.18c20.453-0.065,45.136-0.103,69.946-0.103
		c47.087,0,91.371,0.108,101.423,0.283c9.856,0.405,16.696,1.619,17.655,3.06c0.506,0.76-2.112,1.039-6.715,2.306
		c-1.683,0.463-3.629,1.265-6.036,1.769c-11.536,0.175-54.75,0.283-98.919,0.283s-86.505-0.108-96.284-0.283
		c-9.749-0.199-19.113-1.319-23.385-2.813c-2.153-0.752-1.581-1.603,1.199-2.384C93.195,137.257,93.514,136.584,94.526,136.017z"/>
	<path fill="#FFFED9" d="M95.641,136.074c7.018-0.074,21.436-0.136,39.538-0.184c20.264-0.067,44.693-0.105,69.269-0.105
		c46.564,0,90.333,0.11,100.577,0.289c10.052,0.403,16.996,1.596,17.93,3.014c0.493,0.749-2.194,1.031-6.926,2.27
		c-1.735,0.454-3.75,1.238-6.225,1.731c-11.688,0.179-54.415,0.289-98.137,0.289c-43.722,0-85.592-0.11-95.569-0.289
		c-9.947-0.202-19.35-1.303-23.512-2.772c-2.098-0.741-1.403-1.579,1.541-2.347C94.092,137.288,94.522,136.629,95.641,136.074z"/>
	<path fill="#FFFEDA" d="M96.757,136.132c7.024-0.076,21.283-0.139,39.152-0.188c20.075-0.068,44.25-0.107,68.591-0.107
		c46.042,0,89.295,0.112,99.73,0.294c10.249,0.401,17.295,1.573,18.203,2.967c0.48,0.738-2.274,1.024-7.136,2.235
		c-1.788,0.445-3.872,1.211-6.414,1.694c-11.842,0.182-54.08,0.294-97.355,0.294s-84.679-0.112-94.854-0.294
		c-10.146-0.205-19.587-1.287-23.639-2.732c-2.043-0.729-1.226-1.554,1.883-2.309C94.989,137.319,95.529,136.675,96.757,136.132z"/>
	<path fill="#FFFEDB" d="M97.873,136.189c7.03-0.077,21.13-0.142,38.767-0.191c19.886-0.07,43.808-0.109,67.914-0.109
		c45.52,0,88.258,0.115,98.884,0.301c10.445,0.398,17.596,1.551,18.478,2.92c0.468,0.727-2.356,1.018-7.347,2.2
		c-1.841,0.436-3.993,1.184-6.604,1.656c-11.995,0.186-53.745,0.3-96.572,0.3c-42.828,0-83.767-0.115-94.14-0.3
		c-10.345-0.208-19.825-1.27-23.766-2.691c-1.989-0.717-1.049-1.53,2.226-2.271C95.885,137.35,96.537,136.721,97.873,136.189z"/>
	<path fill="#FFFEDC" d="M98.988,136.247c7.037-0.079,20.979-0.145,38.381-0.195c19.697-0.071,43.365-0.112,67.236-0.112
		c44.998,0,87.22,0.117,98.037,0.307c10.641,0.396,17.895,1.528,18.751,2.873c0.456,0.716-2.438,1.01-7.557,2.165
		c-1.894,0.427-4.113,1.157-6.792,1.618c-12.148,0.189-53.411,0.307-95.791,0.307c-42.379,0-82.854-0.117-93.425-0.307
		c-10.544-0.211-20.062-1.253-23.893-2.651c-1.934-0.706-0.872-1.506,2.568-2.234C96.782,137.381,97.544,136.766,98.988,136.247z"/>
	<path fill="#FFFEDD" d="M100.104,136.305c7.042-0.08,20.826-0.147,37.996-0.199c19.508-0.073,42.922-0.114,66.559-0.114
		c44.475,0,86.182,0.12,97.19,0.313c10.837,0.394,18.194,1.505,19.025,2.827c0.443,0.705-2.521,1.002-7.768,2.129
		c-1.947,0.418-4.234,1.13-6.981,1.581c-12.301,0.193-53.076,0.313-95.008,0.313c-41.932,0-81.941-0.119-92.71-0.313
		c-10.743-0.214-20.3-1.236-24.02-2.61c-1.879-0.694-0.695-1.481,2.91-2.197C97.679,137.412,98.551,136.812,100.104,136.305z"/>
	<path fill="#FFFEDE" d="M101.219,136.362c7.048-0.082,20.673-0.15,37.61-0.203c19.319-0.074,42.479-0.116,65.881-0.116
		c43.953,0,85.145,0.122,96.345,0.318c11.033,0.392,18.493,1.483,19.298,2.78c0.432,0.694-2.604,0.997-7.978,2.095
		c-2.001,0.409-4.355,1.103-7.17,1.543c-12.454,0.197-52.741,0.318-94.226,0.318s-81.028-0.121-91.996-0.318
		c-10.942-0.217-20.537-1.22-24.147-2.57c-1.825-0.683-0.518-1.457,3.252-2.159C98.575,137.443,99.559,136.857,101.219,136.362z"/>
	<path fill="#FFFEDF" d="M102.335,136.42c7.054-0.083,20.521-0.153,37.225-0.206c19.13-0.076,42.037-0.118,65.204-0.118
		c43.431,0,84.107,0.124,95.498,0.324c11.229,0.39,18.793,1.46,19.573,2.733c0.419,0.683-2.688,0.989-8.189,2.06
		c-2.055,0.4-4.477,1.076-7.359,1.505c-12.607,0.2-52.406,0.324-93.444,0.324c-41.037,0-80.115-0.124-91.281-0.324
		c-11.141-0.22-20.774-1.204-24.273-2.53c-1.77-0.671-0.341-1.433,3.594-2.122C99.472,137.474,100.566,136.902,102.335,136.42z"/>
	<path fill="#FFFEE0" d="M103.45,136.478c7.061-0.084,20.369-0.156,36.839-0.21c18.941-0.077,41.594-0.12,64.526-0.12
		c42.908,0,83.069,0.126,94.651,0.33c11.426,0.387,19.093,1.437,19.847,2.686c0.406,0.672-2.772,0.98-8.4,2.024
		c-2.109,0.391-4.598,1.049-7.548,1.468c-12.761,0.204-52.072,0.33-92.662,0.33s-79.203-0.126-90.566-0.33
		c-11.34-0.223-21.013-1.187-24.401-2.489c-1.715-0.659-0.164-1.409,3.936-2.084C100.369,137.505,101.573,136.948,103.45,136.478z"
		/>
	<path fill="#FFFEE1" d="M104.566,136.535c7.066-0.086,20.216-0.158,36.454-0.214c18.752-0.078,41.152-0.122,63.849-0.122
		c42.386,0,82.032,0.128,93.805,0.336c11.622,0.385,19.392,1.415,20.121,2.64c0.394,0.662-2.856,0.972-8.61,1.989
		c-2.163,0.382-4.718,1.022-7.737,1.431c-12.914,0.208-51.737,0.336-91.879,0.336c-40.142,0-78.29-0.128-89.852-0.336
		c-11.539-0.226-21.25-1.171-24.528-2.449c-1.661-0.647,0.013-1.384,4.278-2.047C101.266,137.536,102.581,136.994,104.566,136.535z"
		/>
	<path fill="#FFFEE2" d="M105.682,136.593c7.073-0.087,20.063-0.161,36.068-0.217c18.563-0.08,40.708-0.125,63.171-0.125
		c41.864,0,80.995,0.13,92.958,0.342c11.818,0.383,19.691,1.393,20.395,2.593c0.381,0.651-2.94,0.964-8.821,1.954
		c-2.218,0.374-4.839,0.995-7.926,1.393c-13.067,0.211-51.402,0.342-91.097,0.342s-77.376-0.13-89.137-0.342
		c-11.738-0.229-21.487-1.154-24.655-2.409c-1.606-0.636,0.19-1.36,4.62-2.009C102.162,137.567,103.588,137.039,105.682,136.593z"/>
	<path fill="#FFFEE3" d="M106.797,136.65c7.079-0.089,19.911-0.164,35.683-0.221c18.374-0.081,40.266-0.126,62.494-0.126
		c41.341,0,79.957,0.133,92.112,0.348c12.014,0.38,19.991,1.37,20.668,2.546c0.369,0.64-3.026,0.956-9.032,1.919
		c-2.272,0.364-4.96,0.968-8.116,1.355c-13.22,0.215-51.067,0.348-90.314,0.348c-39.248,0-76.464-0.133-88.423-0.348
		c-11.937-0.232-21.725-1.138-24.782-2.368c-1.551-0.625,0.547-0.548,4.962-1.972C103.136,137.78,104.595,137.084,106.797,136.65z"
		/>
	<path fill="#FFFEE4" d="M107.913,136.708c7.085-0.091,19.759-0.167,35.297-0.225c18.186-0.082,39.823-0.128,61.816-0.128
		c40.819,0,78.919,0.135,91.266,0.354c12.21,0.378,20.29,1.347,20.942,2.5c0.356,0.629-3.111,0.946-9.242,1.883
		c-2.328,0.355-5.082,0.941-8.305,1.318c-13.374,0.218-50.733,0.354-89.533,0.354c-38.799,0-75.551-0.135-87.708-0.354
		c-12.136-0.235-21.962-1.122-24.909-2.328c-1.497-0.613,0.695-0.594,5.305-1.934C104.021,137.804,105.603,137.13,107.913,136.708z"
		/>
	<path fill="#FFFEE5" d="M109.028,136.766c7.091-0.092,19.606-0.169,34.912-0.229c17.997-0.083,39.38-0.131,61.139-0.131
		c40.297,0,77.882,0.137,90.419,0.359c12.407,0.376,20.589,1.325,21.216,2.453c0.344,0.618-3.196,0.938-9.453,1.849
		c-2.382,0.347-5.202,0.914-8.493,1.28c-13.527,0.222-50.398,0.359-88.75,0.359s-74.638-0.137-86.993-0.359
		c-12.335-0.238-22.2-1.105-25.036-2.288c-1.442-0.601,0.847-0.633,5.647-1.897C104.908,137.827,106.61,137.176,109.028,136.766z"/>
	<path fill="#FFFEE6" d="M110.144,136.823c7.097-0.094,19.454-0.172,34.526-0.232c17.808-0.085,38.938-0.133,60.461-0.133
		c39.774,0,76.844,0.139,89.573,0.365c12.603,0.374,20.888,1.303,21.49,2.406c0.332,0.608-3.282,0.929-9.664,1.813
		c-2.438,0.338-5.323,0.887-8.683,1.242c-13.68,0.226-50.063,0.366-87.968,0.366c-37.904,0-73.725-0.14-86.278-0.366
		c-12.534-0.241-22.438-1.089-25.163-2.247c-1.387-0.59,1.005-0.665,5.989-1.859C105.797,137.85,107.617,137.221,110.144,136.823z"
		/>
	<path fill="#FFFEE7" d="M111.259,136.881c7.103-0.095,19.302-0.175,34.141-0.236c17.618-0.086,38.495-0.135,59.783-0.135
		c39.252,0,75.807,0.142,88.727,0.371c12.8,0.371,21.188,1.28,21.764,2.359c0.319,0.597-3.368,0.921-9.874,1.778
		c-2.493,0.329-5.444,0.86-8.872,1.205c-13.833,0.229-49.729,0.371-87.186,0.371c-37.457,0-72.813-0.142-85.564-0.371
		c-12.733-0.244-22.675-1.073-25.29-2.207c-1.333-0.578,1.165-0.691,6.331-1.822C106.687,137.873,108.625,137.267,111.259,136.881z"
		/>
	<path fill="#FFFEE8" d="M112.375,136.938c7.109-0.097,19.149-0.178,33.755-0.24c17.429-0.088,38.052-0.137,59.106-0.137
		c38.73,0,74.769,0.144,87.88,0.377c12.996,0.369,21.486,1.258,22.038,2.313c0.306,0.586-3.454,0.911-10.084,1.743
		c-2.549,0.32-5.565,0.833-9.061,1.167c-13.986,0.233-49.394,0.377-86.404,0.377s-71.9-0.144-84.85-0.377
		c-12.932-0.247-22.913-1.057-25.417-2.167c-1.278-0.567,1.329-0.713,6.673-1.784C107.578,137.896,109.632,137.312,112.375,136.938z
		"/>
	<path fill="#FFFEE9" d="M113.49,136.996c7.116-0.098,18.997-0.181,33.37-0.244c17.24-0.089,37.609-0.139,58.429-0.139
		c38.208,0,73.731,0.146,87.034,0.383c13.192,0.367,21.785,1.236,22.312,2.266c0.294,0.575-3.54,0.902-10.295,1.708
		c-2.604,0.311-5.686,0.806-9.25,1.129c-14.139,0.237-49.059,0.383-85.622,0.383c-36.562,0-70.987-0.146-84.135-0.383
		c-13.131-0.25-23.15-1.04-25.543-2.126c-1.224-0.555,1.494-0.73,7.015-1.747C108.469,137.919,110.639,137.357,113.49,136.996z"/>
	<path fill="#FFFFEA" d="M114.606,137.054c7.122-0.1,18.844-0.184,32.984-0.248c17.052-0.09,37.167-0.142,57.751-0.142
		c37.686,0,72.694,0.149,86.188,0.389c13.388,0.364,22.084,1.214,22.585,2.219c0.282,0.565-3.627,0.893-10.506,1.673
		c-2.66,0.302-5.807,0.778-9.438,1.092c-14.292,0.241-48.725,0.389-84.839,0.389s-70.074-0.148-83.42-0.389
		c-13.33-0.253-23.389-1.023-25.671-2.085c-1.169-0.544,1.662-0.745,7.357-1.71C109.362,137.943,111.646,137.403,114.606,137.054z"
		/>
	<path fill="#FFFFEB" d="M115.722,137.111c7.127-0.101,18.692-0.186,32.599-0.251c16.863-0.092,36.724-0.144,57.074-0.144
		c37.163,0,71.656,0.151,85.341,0.395c13.584,0.362,22.384,1.191,22.86,2.172c0.269,0.554-3.714,0.883-10.717,1.638
		c-2.715,0.293-5.928,0.751-9.628,1.055c-14.445,0.244-48.39,0.395-84.057,0.395c-35.667,0-69.161-0.15-82.706-0.395
		c-13.529-0.256-23.626-1.007-25.798-2.045c-1.115-0.533,1.831-0.755,7.699-1.672C110.255,137.967,112.654,137.449,115.722,137.111z
		"/>
	<path fill="#FFFFEC" d="M116.837,137.169c7.134-0.103,18.54-0.189,32.213-0.255c16.674-0.093,36.281-0.146,56.396-0.146
		c36.64,0,70.618,0.153,84.494,0.401c13.781,0.36,22.683,1.169,23.134,2.125c0.256,0.543-3.801,0.873-10.927,1.603
		c-2.771,0.284-6.049,0.724-9.817,1.017c-14.599,0.248-48.055,0.401-83.275,0.401c-35.219,0-68.248-0.153-81.991-0.401
		c-13.728-0.259-23.864-0.992-25.925-2.004c-1.06-0.521,2.001-0.763,8.042-1.635C111.148,137.99,113.661,137.494,116.837,137.169z"
		/>
	<path fill="#FFFFED" d="M117.953,137.227c7.14-0.104,18.387-0.192,31.828-0.259c16.484-0.094,35.838-0.148,55.718-0.148
		c36.118,0,69.581,0.155,83.648,0.407c13.977,0.357,22.981,1.147,23.407,2.079c0.244,0.533-3.888,0.863-11.138,1.567
		c-2.827,0.275-6.17,0.697-10.006,0.979c-14.752,0.251-47.721,0.407-82.493,0.407s-67.335-0.155-81.276-0.407
		c-13.927-0.262-24.102-0.975-26.052-1.964c-1.006-0.51,2.172-0.77,8.384-1.598C112.042,138.014,114.668,137.54,117.953,137.227z"/>
	<path fill="#FFFFEE" d="M119.068,137.284c7.146-0.105,18.235-0.194,31.442-0.262c16.295-0.096,35.396-0.15,55.041-0.15
		c35.596,0,68.543,0.158,82.802,0.413c14.173,0.355,23.28,1.125,23.681,2.032c0.231,0.522-3.975,0.853-11.348,1.532
		c-2.883,0.266-6.291,0.67-10.195,0.942c-14.905,0.255-47.386,0.413-81.71,0.413c-34.324,0-66.422-0.158-80.562-0.413
		c-14.125-0.265-24.34-0.96-26.178-1.924c-0.952-0.499,2.344-0.772,8.726-1.56C112.937,138.038,115.676,137.585,119.068,137.284z"/>
	<path fill="#FFFFEF" d="M120.184,137.342c7.152-0.107,18.083-0.197,31.057-0.266c16.106-0.097,34.953-0.152,54.364-0.152
		c35.073,0,67.505,0.16,81.955,0.418c14.369,0.353,23.579,1.104,23.955,1.985c0.218,0.511-4.062,0.842-11.559,1.497
		c-2.939,0.257-6.412,0.644-10.384,0.904c-15.058,0.259-47.051,0.418-80.928,0.418s-65.51-0.16-79.847-0.418
		c-14.325-0.268-24.578-0.945-26.306-1.883c-0.897-0.488,2.517-0.773,9.067-1.522C113.831,138.063,116.683,137.63,120.184,137.342z"
		/>
	<path fill="#FFFFF0" d="M121.299,137.399c7.158-0.109,17.93-0.2,30.671-0.27c15.918-0.099,34.51-0.154,53.686-0.154
		c34.551,0,66.468,0.162,81.109,0.424c14.565,0.351,23.877,1.081,24.229,1.938c0.206,0.501-4.149,0.832-11.77,1.462
		c-2.996,0.248-6.533,0.616-10.573,0.866c-15.211,0.262-46.717,0.424-80.146,0.424c-33.43,0-64.597-0.162-79.132-0.424
		c-14.524-0.271-24.816-0.929-26.433-1.843c-0.843-0.477,2.69-0.773,9.41-1.485C114.726,138.087,117.69,137.676,121.299,137.399z"/>
	<path fill="#FFFFF1" d="M122.415,137.457c7.164-0.11,17.777-0.203,30.286-0.274c15.729-0.1,34.068-0.156,53.009-0.156
		c34.029,0,65.431,0.164,80.262,0.43c14.762,0.348,24.176,1.06,24.503,1.892c0.192,0.49-4.237,0.822-11.98,1.427
		c-3.052,0.238-6.654,0.589-10.762,0.829c-15.364,0.266-46.381,0.43-79.364,0.43c-32.982,0-63.684-0.165-78.417-0.43
		c-14.723-0.274-25.054-0.914-26.56-1.803c-0.789-0.465,2.864-0.772,9.752-1.448C115.621,138.111,118.698,137.722,122.415,137.457z"
		/>
	<path fill="#FFFFF2" d="M123.53,137.515c7.17-0.112,17.625-0.206,29.901-0.277c15.54-0.102,33.625-0.159,52.331-0.159
		c33.507,0,64.393,0.167,79.417,0.436c14.958,0.346,24.475,1.038,24.776,1.845c0.18,0.48-4.325,0.811-12.19,1.392
		c-3.108,0.229-6.775,0.563-10.951,0.792c-15.518,0.27-46.047,0.436-78.582,0.436s-62.771-0.167-77.703-0.436
		c-14.921-0.277-25.292-0.899-26.687-1.762c-0.734-0.455,3.039-0.769,10.094-1.41C116.516,138.135,119.705,137.767,123.53,137.515z"
		/>
	<path fill="#FFFFF3" d="M124.646,137.572c7.176-0.113,17.473-0.208,29.515-0.281c15.351-0.103,33.182-0.161,51.653-0.161
		c32.984,0,63.355,0.169,78.57,0.442c15.154,0.344,24.773,1.016,25.051,1.798c0.167,0.469-4.413,0.801-12.401,1.356
		c-3.165,0.22-6.896,0.535-11.141,0.753c-15.67,0.273-45.712,0.442-77.799,0.442c-32.087,0-61.858-0.168-76.989-0.442
		c-15.121-0.28-25.53-0.884-26.813-1.722c-0.68-0.444,3.213-0.765,10.437-1.373C117.412,138.161,120.713,137.813,124.646,137.572z"
		/>
	<path fill="#FFFFF4" d="M125.762,137.63c7.182-0.115,17.32-0.211,29.129-0.285c15.162-0.104,32.739-0.163,50.976-0.163
		c32.462,0,62.318,0.171,77.723,0.448c15.35,0.341,25.071,0.994,25.325,1.751c0.153,0.458-4.501,0.79-12.612,1.321
		c-3.221,0.211-7.017,0.508-11.329,0.716c-15.824,0.277-45.377,0.448-77.017,0.448c-31.639,0-60.945-0.171-76.273-0.448
		c-15.32-0.284-25.769-0.87-26.941-1.682c-0.626-0.433,3.388-0.759,10.778-1.335C118.307,138.185,121.72,137.858,125.762,137.63z"/>
	<path fill="#FFFFF5" d="M126.877,137.688c7.188-0.116,17.168-0.214,28.744-0.289c14.973-0.105,32.297-0.165,50.298-0.165
		c31.94,0,61.28,0.173,76.877,0.454c15.546,0.339,25.37,0.972,25.599,1.705c0.14,0.448-4.589,0.778-12.823,1.286
		c-3.277,0.202-7.138,0.481-11.518,0.679c-15.977,0.28-45.043,0.454-76.235,0.454s-60.033-0.173-75.559-0.454
		c-15.519-0.286-26.006-0.856-27.067-1.641c-0.572-0.423,3.563-0.753,11.12-1.298C119.203,138.21,122.728,137.903,126.877,137.688z"
		/>
	<path fill="#FFFFF6" d="M127.993,137.745c7.195-0.118,17.016-0.217,28.358-0.292c14.784-0.107,31.854-0.167,49.621-0.167
		c31.417,0,60.243,0.175,76.03,0.459c15.743,0.337,25.667,0.951,25.873,1.658c0.127,0.438-4.677,0.767-13.033,1.25
		c-3.334,0.193-7.259,0.455-11.708,0.641c-16.13,0.284-44.708,0.46-75.453,0.46c-30.744,0-59.12-0.176-74.844-0.46
		c-15.717-0.289-26.244-0.843-27.194-1.601c-0.518-0.413,3.738-0.747,11.462-1.26C120.099,138.235,123.735,137.949,127.993,137.745z
		"/>
	<path fill="#FFFFF7" d="M129.108,137.803c7.201-0.119,16.863-0.219,27.973-0.296c14.595-0.108,31.411-0.169,48.943-0.169
		c30.895,0,59.205,0.178,75.184,0.465c15.939,0.334,25.965,0.929,26.146,1.611c0.114,0.428-4.765,0.756-13.244,1.216
		c-3.391,0.184-7.38,0.427-11.896,0.604c-16.283,0.288-44.374,0.465-74.67,0.465s-58.207-0.178-74.13-0.465
		c-15.917-0.292-26.481-0.831-27.321-1.561c-0.464-0.403,3.914-0.738,11.805-1.223C120.995,138.26,124.742,137.995,129.108,137.803z
		"/>
	<path fill="#FFFFF8" d="M130.224,137.86c7.207-0.121,16.711-0.222,27.588-0.3c14.406-0.11,30.968-0.172,48.266-0.172
		c30.373,0,58.167,0.18,74.338,0.472c16.135,0.333,26.262,0.907,26.42,1.564c0.101,0.417-4.854,0.745-13.455,1.181
		c-3.447,0.174-7.5,0.4-12.085,0.566c-16.437,0.292-44.039,0.471-73.888,0.471c-29.85,0-57.294-0.18-73.415-0.471
		c-16.116-0.295-26.72-0.819-27.449-1.52c-0.409-0.394,4.09-0.73,12.147-1.185C121.891,138.286,125.75,138.04,130.224,137.86z"/>
	<path fill="#FFFFF9" d="M131.339,137.918c7.213-0.122,16.559-0.225,27.202-0.304c14.217-0.111,30.525-0.174,47.588-0.174
		c29.851,0,57.13,0.183,73.491,0.478c16.331,0.33,26.56,0.886,26.694,1.518c0.086,0.407-4.941,0.734-13.665,1.146
		c-3.504,0.166-7.622,0.374-12.274,0.528c-16.589,0.295-43.704,0.478-73.106,0.478s-56.381-0.183-72.7-0.478
		c-16.314-0.298-26.957-0.808-27.576-1.479c-0.354-0.385,4.266-0.721,12.489-1.148C122.787,138.311,126.757,138.085,131.339,137.918
		z"/>
	<path fill="#FFFFFA" d="M132.455,137.976c7.219-0.124,16.406-0.228,26.816-0.308c14.028-0.112,30.083-0.176,46.911-0.176
		c29.328,0,56.092,0.185,72.645,0.483c16.527,0.328,26.856,0.864,26.968,1.471c0.073,0.396-5.03,0.723-13.875,1.11
		c-3.561,0.156-7.743,0.346-12.463,0.49c-16.743,0.299-43.37,0.483-72.324,0.483c-28.955,0-55.469-0.185-71.986-0.483
		c-16.514-0.301-27.193-0.798-27.703-1.439c-0.3-0.376,4.442-0.711,12.831-1.11C123.683,138.336,127.764,138.131,132.455,137.976z"
		/>
	<path fill="#FFFFFB" d="M133.57,138.033c7.225-0.125,16.254-0.23,26.431-0.311c13.839-0.114,29.64-0.178,46.233-0.178
		c28.806,0,55.055,0.187,71.798,0.489c16.724,0.326,27.154,0.842,27.242,1.424c0.059,0.386-5.119,0.711-14.086,1.075
		c-3.618,0.147-7.864,0.319-12.653,0.453c-16.896,0.302-43.034,0.489-71.541,0.489c-28.507,0-54.556-0.187-71.271-0.489
		c-16.712-0.305-27.428-0.79-27.83-1.399c-0.244-0.369,4.618-0.701,13.173-1.073C124.58,138.361,128.771,138.176,133.57,138.033z"/>
	<path fill="#FFFFFC" d="M134.686,138.091c7.231-0.127,16.101-0.233,26.045-0.315c13.65-0.115,29.198-0.18,45.556-0.18
		c28.284,0,54.017,0.189,70.952,0.495c16.92,0.323,27.45,0.82,27.516,1.377c0.044,0.375-5.207,0.7-14.297,1.04
		c-3.674,0.138-7.985,0.292-12.842,0.416c-17.049,0.306-42.7,0.495-70.759,0.495c-28.059,0-53.643-0.189-70.557-0.495
		c-16.911-0.307-27.66-0.783-27.956-1.358c-0.187-0.362,4.794-0.689,13.515-1.035C125.476,138.387,129.779,138.222,134.686,138.091z
		"/>
	<path fill="#FFFFFD" d="M135.802,138.148c7.237-0.128,15.949-0.236,25.66-0.319c13.461-0.116,28.754-0.182,44.878-0.182
		c27.761,0,52.979,0.191,70.105,0.501c17.116,0.321,27.746,0.799,27.79,1.331c0.03,0.365-5.296,0.688-14.508,1.005
		c-3.731,0.128-8.105,0.266-13.03,0.378c-17.202,0.31-42.365,0.501-69.977,0.501s-52.73-0.191-69.842-0.501
		c-17.11-0.31-27.89-0.775-28.083-1.318c-0.127-0.355,4.971-0.679,13.857-0.998C126.372,138.412,130.786,138.268,135.802,138.148z"
		/>
	<path fill="#FFFFFE" d="M136.917,138.206c7.244-0.13,15.796-0.239,25.275-0.322c13.272-0.118,28.312-0.185,44.201-0.185
		c27.239,0,51.942,0.193,69.259,0.507c17.312,0.319,28.042,0.776,28.063,1.284c0.015,0.354-5.384,0.687-14.718,0.97
		c-3.788,0.124-8.227,0.238-13.22,0.34c-17.355,0.313-42.03,0.507-69.195,0.507c-27.164,0-51.817-0.194-69.127-0.507
		c-17.31-0.313-28.115-0.767-28.21-1.278c-0.065-0.349,5.147-0.68,14.199-0.96C127.269,138.433,131.793,138.313,136.917,138.206z"/>
	<path fill="#FFFFFF" d="M303.195,139.501c0,0.483-10.829,0.921-28.337,1.237c-17.508,0.317-41.696,0.513-68.413,0.513
		s-50.904-0.196-68.413-0.513c-17.508-0.316-28.337-0.754-28.337-1.237s10.829-0.921,28.337-1.237
		c17.508-0.317,41.696-0.513,68.413-0.513s50.904,0.196,68.413,0.513C292.366,138.58,303.195,139.018,303.195,139.501z"/>
</g>
<linearGradient id="XMLID_36_" gradientUnits="userSpaceOnUse" x1="0" y1="174.5361" x2="371" y2="174.5361">
	<stop  offset="0" style="stop-color:#67657A"/>
	<stop  offset="1" style="stop-color:#534846"/>
</linearGradient>
<path fill="url(#XMLID_36_)" d="M0,21.036v307h371v-307H0z M354.848,293.586c0,5.522-4.478,10-10,10H26.152c-5.523,0-10-4.478-10-10
	V141.251c0-5.523,4.477-10,10-10h318.695c5.522,0,10,4.477,10,10V293.586z"/>
<linearGradient id="XMLID_37_" gradientUnits="userSpaceOnUse" x1="371" y1="186.876" x2="383.4639" y2="186.876">
	<stop  offset="0" style="stop-color:#67657A"/>
	<stop  offset="1" style="stop-color:#534846"/>
</linearGradient>
<rect x="371" y="162.729" fill="url(#XMLID_37_)" width="12.464" height="48.293"/>
<linearGradient id="XMLID_38_" gradientUnits="userSpaceOnUse" x1="371" y1="174.5361" x2="383.4639" y2="174.5361">
	<stop  offset="0" style="stop-color:#67657A"/>
	<stop  offset="1" style="stop-color:#534846"/>
</linearGradient>
<polygon fill="url(#XMLID_38_)" points="371,21.036 383.464,63.17 383.464,312.193 371,328.036 "/>
<rect x="195.663" y="21.253" opacity="0.08" width="4.69" height="109.998"/>
<linearGradient id="XMLID_39_" gradientUnits="userSpaceOnUse" x1="203.9917" y1="-7.0332" x2="325.6522" y2="145.7185">
	<stop  offset="0" style="stop-color:#67657A"/>
	<stop  offset="1" style="stop-color:#534846"/>
</linearGradient>
<rect x="198.067" fill="url(#XMLID_39_)" width="128.998" height="133.021"/>
<linearGradient id="XMLID_40_" gradientUnits="userSpaceOnUse" x1="232.5142" y1="55.5547" x2="296.8697" y2="136.3567">
	<stop  offset="0.0056" style="stop-color:#292929"/>
	<stop  offset="1" style="stop-color:#000000"/>
</linearGradient>
<rect x="214.308" y="71.28" fill="url(#XMLID_40_)" width="98.382" height="46.355"/>
<path opacity="0.1" fill="#FFFFFF" d="M256.948,71.279h-42.641v19.406C214.308,79.968,233.398,71.279,256.948,71.279z"/>
<polygon fill="#141414" points="16.152,141.251 79.019,156.644 79.019,286.49 16.152,293.586 "/>
<linearGradient id="XMLID_41_" gradientUnits="userSpaceOnUse" x1="198.0674" y1="134.0225" x2="329.0146" y2="134.0225">
	<stop  offset="0" style="stop-color:#67657A"/>
	<stop  offset="1" style="stop-color:#534846"/>
</linearGradient>
<polygon fill="url(#XMLID_41_)" points="198.067,133.021 202.56,135.023 329.015,135.023 327.065,133.021 "/>
<polygon fill="#3F3F3F" points="328.524,126.743 328.524,11.876 327.065,11.876 327.065,133.021 329.015,135.023 329.015,127.244 
	"/>
<polyline fill="#3F3F3F" points="327.065,0 336.537,21.036 327.065,21.036 326.748,0.317 "/>
<path fill="#BF0000" d="M112.901,44.35c0,2.485-2.015,4.5-4.5,4.5h-80c-2.485,0-4.5-2.015-4.5-4.5l0,0c0-2.485,2.015-4.5,4.5-4.5h80
	C110.887,39.85,112.901,41.865,112.901,44.35L112.901,44.35z"/>
<text transform="matrix(1 0 0 1 36.7231 44.7065)" fill="#FFFFFF" font-family="'LeagueGothic-Regular'" font-size="4.5494">STARFLEET STANDART REPLICATOR MK. XIV-A</text>
<g opacity="0.35">
	<g>
		<linearGradient id="XMLID_42_" gradientUnits="userSpaceOnUse" x1="158.4609" y1="242.7124" x2="238.2432" y2="242.7124">
			<stop  offset="0" style="stop-color:#FFFFFF"/>
			<stop  offset="1" style="stop-color:#606060"/>
		</linearGradient>
		<path fill="url(#XMLID_42_)" d="M198.352,185.586c-22.074,0.028-39.891,2.031-39.891,4.499c0,0.384,0.433,1.756,1.244,2.111
			c3.23,2.936,12.199,10.41,20.023,20.787c9.742,12.921,11.749,23.68,13.233,31.349s2.182,43.11,2.182,43.11
			c-1.692,2.853-9.604,5.184-15.467,6.561c-4.082,0.358-6.57,0.834-6.57,1.356l-2.27,1.782c-0.38,0.146-0.581,0.299-0.581,0.455
			c0,1.238,12.579,2.242,28.097,2.242s28.097-1.004,28.097-2.242c0-0.156-0.201-0.309-0.581-0.455l-2.27-1.782
			c0-0.522-2.488-0.998-6.57-1.356c-5.863-1.377-13.774-3.708-15.467-6.561c0,0,0.697-35.441,2.182-43.11
			s3.491-18.428,13.233-31.349c7.824-10.377,16.793-17.851,20.023-20.787c0.811-0.355,1.244-1.728,1.244-2.111
			C238.243,187.617,220.426,185.614,198.352,185.586z"/>
	</g>
</g>
<ellipse fill="#6B6B6B" cx="198.352" cy="191.189" rx="38.453" ry="4.583"/>
<g>
	<path opacity="0.51" fill="#FFFFFF" d="M208.391,218.242c4.15-5.159,9.281-10.809,9.281-11.491c0-2.209-8.961-4-20.016-4
		c-11.054,0-20.016,1.791-20.016,4c0,0.689,4.136,6.443,8.351,11.658c4.579,5.667,8.305,8.526,11.665,8.526
		C201.05,226.935,203.788,223.963,208.391,218.242z"/>
	<path opacity="0.6325" fill="#FFFFFF" d="M197.618,206.162c8.642,0,15.588,1.523,15.869,3.43c0.103,0.695-3.636,5.149-6.748,9.258
		c-3.453,4.882-5.985,7.59-9.121,7.59c-3.111,0-6.385-2.624-9.819-7.464c-3.161-4.151-6.153-8.683-6.05-9.384
		C182.028,207.685,188.977,206.162,197.618,206.162z"/>
	<path opacity="0.755" fill="#FFFFFF" d="M197.579,209.572c6.229,0,11.228,1.262,11.723,2.86c0.221,0.713-2.141,3.966-4.215,7.026
		c-2.302,4.043-4.629,6.487-7.507,6.487c-2.862,0-5.684-2.388-7.973-6.403c-2.107-3.088-3.972-6.393-3.75-7.11
		C186.35,210.834,191.351,209.572,197.579,209.572z"/>
	<path opacity="0.8775" fill="#FFFFFF" d="M197.54,212.983c3.816,0,6.923,0.986,7.576,2.289c0.364,0.726-0.645,2.784-1.682,4.794
		c-1.151,3.203-3.273,5.383-5.894,5.383c-2.613,0-4.981-2.152-6.126-5.342c-1.054-2.024-1.813-4.108-1.45-4.835
		C190.616,213.969,193.724,212.983,197.54,212.983z"/>
	<circle fill="#FFFFFF" cx="197.501" cy="220.674" r="4.28"/>
</g>
<ellipse transform="matrix(0.474 0.8805 -0.8805 0.474 292.8168 -61.8824)" opacity="0.41" fill="#004C00" cx="198.204" cy="214.147" rx="6.082" ry="8.071"/>
<path opacity="0.28" fill="#FFFFFF" d="M232.695,191.001c0,0-19.25,20.5-24.75,31.5s-0.407,5-5,5s7.645-33.685,7.517-38.662
	C210.462,188.839,221.475,187.527,232.695,191.001z"/>
<path opacity="0.28" fill="#FFFFFF" d="M201.562,288.635c0,0,4.996,4.382,20.421,6.269l2.717,2.717c0,0-8.236,1.34-13.189,1.34
	c0.661-0.66,1.965-2.269-0.283-3.821S203.359,290.433,201.562,288.635z"/>
</svg>
